<svg width="23" height="22" viewBox="0 0 23 22" fill="none" xmlns="http://www.w3.org/2000/svg">
<path d="M16.4085 1L6.31976 1C3.53383 1 1.27539 3.23858 1.27539 6L1.27539 16C1.27539 18.7614 3.53383 21 6.31976 21L16.4085 21C19.1944 21 21.4529 18.7614 21.4529 16L21.4529 6C21.4529 3.23858 19.1944 1 16.4085 1Z" stroke="#111111" stroke-width="2" stroke-linecap="round" stroke-linejoin="round"/>
<path d="M15.3996 10.37C15.5241 11.2022 15.3807 12.0522 14.9897 12.799C14.5988 13.5458 13.9802 14.1514 13.222 14.5297C12.4639 14.9079 11.6046 15.0396 10.7666 14.9059C9.92858 14.7723 9.15441 14.3801 8.5542 13.7852C7.954 13.1902 7.55834 12.4229 7.42349 11.5922C7.28864 10.7615 7.42147 9.90989 7.80309 9.15837C8.1847 8.40685 8.79568 7.79374 9.5491 7.40624C10.3025 7.01874 11.16 6.87658 11.9997 7C12.8561 7.12588 13.649 7.52146 14.2613 8.1283C14.8735 8.73515 15.2726 9.52107 15.3996 10.37Z" stroke="#111111" stroke-width="2" stroke-linecap="round" stroke-linejoin="round"/>
</svg>
