<svg width="23" height="21" viewBox="0 0 23 21" fill="none" xmlns="http://www.w3.org/2000/svg">
<path d="M15.1242 7C16.7297 7 18.2693 7.63214 19.4045 8.75736C20.5397 9.88258 21.1775 11.4087 21.1775 13L21.1775 20H17.142L17.142 13C17.142 12.4696 16.9294 11.9609 16.551 11.5858C16.1726 11.2107 15.6594 11 15.1242 11C14.5891 11 14.0759 11.2107 13.6975 11.5858C13.3191 11.9609 13.1065 12.4696 13.1065 13V20H9.07099V13C9.07099 11.4087 9.70874 9.88258 10.8439 8.75736C11.9791 7.63214 13.5188 7 15.1242 7Z" stroke="#111111" stroke-width="2" stroke-linecap="round" stroke-linejoin="round"/>
<path d="M5.0355 8H1L1 20H5.0355L5.0355 8Z" stroke="#111111" stroke-width="2" stroke-linecap="round" stroke-linejoin="round"/>
<path d="M3.01775 5C4.13212 5 5.0355 4.10457 5.0355 3C5.0355 1.89543 4.13212 1 3.01775 1C1.90338 1 1 1.89543 1 3C1 4.10457 1.90338 5 3.01775 5Z" stroke="#111111" stroke-width="2" stroke-linecap="round" stroke-linejoin="round"/>
</svg>
