<svg width="23" height="22" viewBox="0 0 23 22" fill="none" xmlns="http://www.w3.org/2000/svg">
<path d="M21.6296 11C21.6296 16.5228 17.1127 21 11.5409 21M21.6296 11C21.6296 5.47715 17.1127 1 11.5409 1M21.6296 11L1.45215 11M11.5409 21C5.96903 21 1.45215 16.5228 1.45215 11M11.5409 21C14.0644 18.2616 15.4985 14.708 15.5764 11C15.4985 7.29203 14.0644 3.73835 11.5409 1M11.5409 21C9.01741 18.2616 7.58332 14.708 7.50539 11C7.58332 7.29203 9.01741 3.73835 11.5409 1M1.45215 11C1.45215 5.47715 5.96903 1 11.5409 1" stroke="#111111" stroke-width="2" stroke-linecap="round" stroke-linejoin="round"/>
</svg>
