<svg width="97" height="48" viewBox="0 0 97 48" fill="none" xmlns="http://www.w3.org/2000/svg">
<path d="M20.1823 18.871L12.8823 20.3685C12.7479 20.3897 12.6118 20.4368 12.4799 20.5078C12.3908 20.5585 12.308 20.6291 12.2378 20.7142C12.1637 20.8041 12.1033 20.906 12.0603 21.0135C12.0173 21.121 11.9927 21.2317 11.988 21.339C11.9775 21.4551 11.9913 21.5652 12.0285 21.6607C12.0657 21.7561 12.1252 21.8342 12.2022 21.8886C12.2615 21.9338 12.3321 21.9613 12.4096 21.9694C12.5279 21.9761 12.6508 21.9644 12.7748 21.9345L17.2522 21.016C17.7473 20.8995 18.2329 20.8917 18.6812 20.993C19.044 21.0863 19.3661 21.2699 19.6278 21.5324C19.876 21.7861 20.0677 22.1028 20.1934 22.4668C20.3202 22.8359 20.3692 23.2515 20.3375 23.6878C20.3113 24.093 20.2144 24.5092 20.0525 24.9134C19.8968 25.3092 19.6893 25.6897 19.4384 26.0398C19.1237 26.4611 18.7482 26.8234 18.3368 27.1028C17.8408 27.4278 17.3146 27.6426 16.7941 27.7327L8.93444 29.3451L9.13224 26.4633L16.5114 24.9495C16.6757 24.9237 16.8423 24.8646 17.0031 24.7753C17.1127 24.7104 17.2128 24.6187 17.2943 24.5088C17.4139 24.3419 17.485 24.1458 17.4941 23.9576C17.5052 23.8465 17.4959 23.7399 17.4669 23.6443C17.4379 23.5488 17.3897 23.4663 17.3253 23.402C17.2609 23.3279 17.1752 23.2799 17.077 23.2629C16.9312 23.2498 16.7788 23.262 16.6246 23.299L12.5001 24.1451C11.9406 24.2815 11.3902 24.3028 10.8764 24.2081C10.5013 24.1233 10.1683 23.9415 9.89941 23.6749C9.65231 23.4243 9.46333 23.1089 9.34245 22.7454C9.21847 22.367 9.17208 21.9433 9.20605 21.4995C9.23335 21.0586 9.34206 20.605 9.52543 20.1668C9.70544 19.7401 9.94668 19.3346 10.2373 18.9703C10.5486 18.5863 10.9131 18.2616 11.3074 18.0172C11.8468 17.706 12.4081 17.4993 12.9626 17.4075L20.3873 15.8844L20.1823 18.871Z" fill="#FFFCF5"/>
<path d="M33.0935 13.2292L32.8885 16.216L28.4475 17.127L27.8787 25.4142L25.1411 25.9758L25.7099 17.6887L21.2629 18.601L21.4679 15.6142L33.0935 13.2292Z" fill="#FFFCF5"/>
<path d="M43.9638 21.5805C43.9954 21.654 44.0222 21.731 44.044 21.811C44.063 21.8838 44.0785 21.964 44.0937 22.0477L41.0332 22.6757C41.0214 22.608 41.0059 22.5421 40.9867 22.4784C40.9727 22.4212 40.9553 22.3681 40.9408 22.3177L40.4921 21.0751L34.4927 22.3063L33.8736 23.768C33.8509 23.836 33.8249 23.9081 33.802 23.9795C33.7767 24.0486 33.7568 24.1186 33.7427 24.1885L30.597 24.8341C30.6197 24.7454 30.6478 24.6572 30.6811 24.5699C30.7147 24.4785 30.7529 24.3882 30.7956 24.2995L35.0521 14.591C35.3345 13.9099 35.7674 13.2853 36.3005 12.79C36.8706 12.3382 37.4986 12.0335 38.1249 11.905C38.7511 11.7765 39.3547 11.8284 39.8782 12.0558C40.3595 12.3424 40.72 12.8041 40.9176 13.3873L43.9638 21.5805ZM39.674 18.7907L38.3915 15.0568C38.3597 14.9569 38.2981 14.8787 38.2149 14.8328C38.1382 14.792 38.0459 14.7819 37.95 14.8038C37.8605 14.8219 37.7706 14.8657 37.6893 14.9307C37.5952 15.0149 37.5204 15.125 37.4758 15.2447L35.6531 19.6025L39.674 18.7907Z" fill="#FFFCF5"/>
<path d="M47.8186 21.2267L45.1024 21.7839L45.8281 11.2111C45.8602 10.7444 46.1013 10.4649 46.5514 10.3725L53.751 8.89559C54.2845 8.76794 54.8081 8.75801 55.2914 8.86637C55.6639 8.9682 55.9942 9.16119 56.263 9.434C56.4959 9.67609 56.6734 9.97899 56.7865 10.327C56.9038 10.68 56.949 11.0755 56.9196 11.4901C56.8917 11.931 56.7904 12.3837 56.621 12.8252C56.4403 13.2788 56.1551 13.6957 55.801 14.0238C56.1098 14.1489 56.3533 14.388 56.5006 14.7106C56.6443 15.144 56.6884 15.6352 56.6299 16.1479L56.4755 18.3971C56.4585 18.644 56.4448 18.8436 56.4342 18.9991C56.4265 19.1548 56.428 19.3082 56.4386 19.4584L53.7011 20.02C53.6875 19.7774 53.6895 19.5297 53.7071 19.2785L53.8617 17.0259C53.8835 16.8828 53.8766 16.7444 53.8414 16.6211C53.8063 16.4977 53.7438 16.3927 53.6586 16.314C53.4173 16.185 53.1223 16.1646 52.82 16.2559L48.0932 17.2256L47.8186 21.2267ZM53.0694 13.6705C53.2277 13.6441 53.388 13.5782 53.5385 13.4775C53.6609 13.3908 53.7711 13.2782 53.861 13.148C53.9975 12.9591 54.0807 12.7375 54.0958 12.5229C54.1068 12.4054 54.0964 12.2928 54.0652 12.1921C54.0339 12.0913 53.9825 12.0044 53.9141 11.9366C53.8261 11.8499 53.7169 11.7915 53.5939 11.7655C53.4709 11.7395 53.3371 11.7465 53.2017 11.786L48.6393 12.7219C48.6091 12.7237 48.5778 12.7335 48.548 12.7505C48.5181 12.7675 48.4904 12.7912 48.4669 12.8199C48.4435 12.8485 48.4251 12.8813 48.4129 12.9157C48.4008 12.9502 48.3954 12.9853 48.397 13.0184L48.2849 14.652L53.0694 13.6705Z" fill="#FFFCF5"/>
<path d="M69.6207 5.59059L69.4157 8.57735L64.9717 9.48904L64.4029 17.7762L61.6653 18.3378L62.2341 10.0507L57.7932 10.9617L57.9982 7.97498L69.6207 5.59059Z" fill="#FFFCF5"/>
<path d="M73.353 15.8898C72.8008 16.0144 72.2552 16.0568 71.7309 16.0158C71.3297 15.986 70.9671 15.8406 70.6744 15.5923C70.4037 15.3467 70.2152 15.006 70.1274 14.604C70.0238 14.1047 69.9958 13.5694 70.0444 13.0169L70.571 5.34528L73.3086 4.78366L72.805 12.1204C72.7569 12.8217 73.0583 13.1056 73.7092 12.9721L77.9129 12.1097C78.5842 11.972 78.9438 11.5524 78.992 10.8511L79.4955 3.51438L82.2331 2.95276L81.7066 10.6244C81.6204 11.8793 81.2838 12.8521 80.694 13.5367C80.1042 14.2213 79.175 14.6954 77.8974 14.9575L73.353 15.8898Z" fill="#FFFCF5"/>
<path d="M90.9892 1.10513C91.6063 0.963771 92.2114 0.952772 92.7727 1.07272C93.2214 1.17815 93.6209 1.39587 93.9464 1.71233C94.2705 2.0287 94.5198 2.4303 94.6809 2.89558C94.8444 3.3711 94.9097 3.90549 94.8729 4.46689C94.841 4.95949 94.7291 5.46488 94.5426 5.95861C94.3575 6.447 94.1073 6.91757 93.8023 7.35104C93.4101 7.90013 92.9329 8.37189 92.406 8.7313C91.7664 9.15152 91.0873 9.42852 90.416 9.54305L85.7439 10.5015L85.5494 13.336L82.8362 13.8926L83.5619 3.31914C83.5939 2.85236 83.829 2.57405 84.27 2.48357L90.9892 1.10513ZM90.6579 6.76223C90.9058 6.72223 91.157 6.62293 91.3946 6.47104C91.5767 6.35108 91.7391 6.18544 91.8654 5.99095C92.0394 5.72854 92.1433 5.42903 92.1607 5.14002C92.1865 4.83087 92.117 4.54865 91.9637 4.34006C91.8554 4.20758 91.711 4.11793 91.5438 4.07939C91.3234 4.02975 91.0845 4.03455 90.841 4.0935L86.3028 5.02451C86.172 5.05135 86.1028 5.14225 86.0921 5.29784L85.925 7.73319L90.6579 6.76223Z" fill="#FFFCF5"/>
<path d="M20.6341 35.6642L12.2877 37.3764C12.1347 37.4017 11.9799 37.456 11.8298 37.537C11.7269 37.5956 11.6312 37.6767 11.5496 37.7746C11.4633 37.8789 11.3931 37.9974 11.3437 38.1224C11.2943 38.2474 11.2668 38.3761 11.2629 38.5003C11.2539 38.6316 11.2725 38.7554 11.3172 38.862C11.362 38.9686 11.4316 39.055 11.5206 39.1144C11.5898 39.1655 11.6712 39.1976 11.7601 39.2087C11.8951 39.2165 12.0351 39.2034 12.1766 39.1699L17.2653 38.126C17.8323 37.9927 18.3882 37.9841 18.9014 38.1005C19.3167 38.2056 19.6852 38.4149 19.9838 38.7155C20.2682 39.007 20.4872 39.3713 20.6298 39.7901C20.9133 40.6121 20.8561 41.6182 20.4708 42.5872C20.2932 43.043 20.0543 43.4809 19.7641 43.8826C19.4047 44.3654 18.9755 44.7808 18.5049 45.1013C17.9361 45.4717 17.3334 45.717 16.7372 45.8208L7.73378 47.6678L7.96059 44.3632L16.4134 42.6292C16.6024 42.5991 16.7939 42.5316 16.9789 42.4298C17.0999 42.3545 17.21 42.2506 17.2995 42.1273C17.4424 41.9368 17.5286 41.7097 17.5412 41.4908C17.5526 41.3653 17.5413 41.2451 17.508 41.1373C17.4747 41.0296 17.42 40.9365 17.3473 40.8636C17.2733 40.777 17.1732 40.7224 17.0582 40.7062C16.8915 40.6891 16.7167 40.7025 16.5397 40.7459L11.822 41.7137C11.1816 41.8699 10.5516 41.894 9.96388 41.7847C9.53368 41.6905 9.15197 41.4832 8.84502 41.1772C8.56212 40.8884 8.34591 40.5255 8.20772 40.1075C8.06421 39.6744 8.01084 39.1883 8.05086 38.6791C8.08232 38.174 8.20785 37.6543 8.41951 37.1529C8.62444 36.6638 8.90032 36.1991 9.23332 35.7821C9.58849 35.3426 10.0055 34.9717 10.4566 34.6941C11.0742 34.3375 11.7169 34.1005 12.3518 33.9952L20.8685 32.2481L20.6341 35.6642Z" fill="#FFFCF5"/>
<path d="M25.7235 43.9205C25.092 44.0648 24.4681 44.1131 23.8693 44.0641C23.4092 44.0304 22.9933 43.8639 22.658 43.579C22.3469 43.2986 22.1307 42.9082 22.031 42.447C21.9128 41.876 21.881 41.2639 21.9366 40.6322L22.5402 31.8376L25.6763 31.1942L25.0989 39.6066C25.0439 40.4082 25.3906 40.7306 26.1328 40.5784L30.9479 39.5905C31.7144 39.4333 32.1252 38.9544 32.1801 38.1538L32.7568 29.7516L35.8837 29.1101L35.2801 37.9047C35.1813 39.3434 34.7942 40.4544 34.1187 41.2378C33.4431 42.0211 32.3795 42.5595 30.9279 42.8528L25.7235 43.9205Z" fill="#FFFCF5"/>
<path d="M40.6219 31.8904C40.6082 31.8441 40.5798 31.8083 40.5411 31.7885C40.5024 31.7688 40.4554 31.7661 40.4074 31.7808C40.3367 31.7971 40.2671 31.8424 40.2127 31.9076C40.1808 31.9476 40.1552 31.9927 40.1375 32.04C40.1198 32.0873 40.1104 32.1358 40.1099 32.1824L39.5028 41.0333L36.5148 41.6467L37.1639 32.183C37.1875 31.5732 37.3258 30.9423 37.57 30.3303C37.7769 29.8399 38.0757 29.3836 38.4412 28.9998C38.7356 28.7071 39.0561 28.4547 39.3926 28.2503C39.7626 28.0258 40.1496 27.8728 40.5335 27.7991C41.1884 27.6371 41.8111 27.747 42.2823 28.1077C42.7362 28.4899 43.0846 29.0022 43.3042 29.6105L45.5012 35.412C45.5148 35.4786 45.549 35.5325 45.5987 35.5656C45.6483 35.5988 45.7108 35.6094 45.7766 35.5958C45.8424 35.5823 45.9081 35.5454 45.9638 35.4906C46.0195 35.4359 46.0622 35.3662 46.0854 35.2921L49.1468 28.4044C49.4572 27.689 49.8844 27.0179 50.4009 26.4344C50.9377 25.8629 51.5976 25.4894 52.2517 25.3868C52.6363 25.303 53.0129 25.2992 53.3624 25.3757C53.6802 25.4455 53.9748 25.5717 54.2367 25.7504C54.5625 25.9913 54.8095 26.3357 54.9568 26.7543C55.1228 27.2821 55.1772 27.8734 55.1167 28.4907L54.4671 37.9612L51.4761 38.5753L52.0832 29.7244C52.0891 29.6767 52.0862 29.6307 52.0745 29.5894C52.0629 29.5481 52.0428 29.5124 52.0156 29.4846C51.9689 29.4398 51.9036 29.4222 51.833 29.4352C51.786 29.4396 51.7376 29.4618 51.6954 29.4983C51.6532 29.5348 51.6197 29.5835 51.6002 29.6366L47.5193 38.4862C47.3243 38.9141 47.0178 39.2895 46.6514 39.549C46.2784 39.8125 45.8783 39.9916 45.48 40.0733C45.0817 40.1551 44.6951 40.1375 44.348 40.0219C44.008 39.9065 43.7451 39.6483 43.6033 39.2902L40.6401 31.8866" fill="#FFFCF5"/>
<path d="M64.9487 35.9981C64.5502 36.084 64.1633 36.0663 63.8183 35.9464C63.4775 35.8321 63.2145 35.5736 63.0735 35.2147L60.1073 27.8117C60.0947 27.7652 60.067 27.7291 60.0287 27.7091C59.9903 27.6891 59.9436 27.6865 59.8959 27.7016C59.825 27.7169 59.7551 27.7624 59.7012 27.8283C59.6688 27.8681 59.6426 27.9132 59.6244 27.9607C59.6062 28.0081 59.5962 28.0569 59.5953 28.1038L58.988 36.9581L56 37.5715L56.6491 28.1077C56.6727 27.498 56.811 26.8671 57.0552 26.2551C57.2658 25.7626 57.5689 25.3053 57.9386 24.922C58.2325 24.6285 58.5531 24.3759 58.89 24.1725C59.26 23.948 59.6469 23.795 60.0309 23.7213C60.6859 23.5587 61.3088 23.6686 61.7797 24.03C62.2336 24.4122 62.582 24.9245 62.8016 25.5327L64.9951 31.3417C65.0087 31.4083 65.0429 31.4621 65.0926 31.4953C65.1422 31.5284 65.2046 31.539 65.2705 31.5255C65.3363 31.512 65.402 31.4751 65.4577 31.4203C65.5134 31.3656 65.556 31.2959 65.5793 31.2218L68.6437 24.3334C68.953 23.6185 69.3792 22.9476 69.8948 22.364C70.4316 21.7926 71.0915 21.419 71.7456 21.3164C72.1302 21.2323 72.5069 21.2285 72.8563 21.3054C73.1745 21.3743 73.4691 21.5005 73.7306 21.68C74.0564 21.9209 74.3034 22.2653 74.4507 22.6839C74.6167 23.2117 74.6711 23.803 74.6106 24.4204L73.9615 33.8841L70.9735 34.4976L71.5806 25.6466C71.5865 25.599 71.5836 25.553 71.5719 25.5117C71.5603 25.4704 71.5402 25.4346 71.513 25.4068C71.4652 25.3621 71.3989 25.3447 71.3274 25.3581C71.2804 25.3625 71.2319 25.3846 71.1897 25.4211C71.1476 25.4576 71.114 25.5063 71.0946 25.5595L67.0167 34.4085C66.8197 34.8364 66.5125 35.2116 66.1458 35.472C65.7655 35.7445 65.3552 35.9249 64.9487 35.9981V35.9981Z" fill="#FFFCF5"/>
<path d="M79.5825 19.9716L78.7 32.8376L75.5732 33.4796L76.4557 20.6135L79.5825 19.9716Z" fill="#FFFCF5"/>
<path d="M94.0318 16.9497L93.7974 20.366L88.7146 21.4087L88.0631 30.9L84.9393 31.5409L85.5907 22.0496L80.4897 23.0961L80.7242 19.6797L94.0318 16.9497Z" fill="#FFFCF5"/>
<path d="M13.6903 8.41718C13.6903 8.41718 12.4933 11.7351 11.856 13.3304C11.2187 14.9257 10.8362 15.5529 10.8362 15.5529C10.2453 15.3062 9.30641 14.6749 9.30641 14.6749C9.70015 14.2442 9.76996 13.9776 9.92102 13.3304L10.2291 12.0563C7.84183 14.0584 5.88251 16.4315 4.44684 19.0595C3.21438 21.6628 4.51874 22.8453 5.89498 24.8344C4.03722 24.2054 2.32708 23.2728 0.852168 22.0845C0.354085 21.6613 0.0564089 21.084 0.0202584 20.4712C-0.0482052 19.8258 0.0574436 19.1752 0.328372 18.5737C0.68196 17.7681 1.1515 17.007 1.72516 16.3096L6.50094 10.2138L4.20035 11.5705C4.10304 11.6322 4.01041 11.6995 3.92305 11.7721L1.48894 10.5163C1.55056 10.4705 1.60192 10.4155 1.66354 10.3788L1.85868 10.2597L9.13019 6.06138C9.62394 5.75725 10.1968 5.57106 10.794 5.52056C11.3802 5.50126 11.9595 5.6385 12.4578 5.91472C12.9521 6.14797 13.3485 6.5178 13.5876 6.96887C13.7864 7.43102 13.8222 7.93635 13.6903 8.41718Z" fill="#F2B330"/>
<path d="M76.9502 36.1896H80.1443C80.353 36.1896 80.5389 36.2209 80.7017 36.2835C80.8687 36.342 81.0086 36.4255 81.1213 36.534C81.2382 36.6384 81.3259 36.7658 81.3844 36.9161C81.447 37.0622 81.4783 37.2209 81.4783 37.3921C81.4783 37.6342 81.4073 37.8576 81.2654 38.0622C81.1234 38.2668 80.9146 38.4192 80.6391 38.5194L78.7289 39.2146C78.6955 39.2271 78.6787 39.248 78.6787 39.2772C78.6787 39.319 78.7017 39.3398 78.7476 39.3398H81.4282V40.4233H77.8082C77.6412 40.4233 77.4971 40.4004 77.3761 40.3544C77.2591 40.3043 77.161 40.2417 77.0817 40.1666C77.0065 40.0872 76.9502 39.9975 76.9126 39.8973C76.8792 39.797 76.8625 39.6968 76.8625 39.5966C76.8625 39.5256 76.8708 39.4526 76.8875 39.3774C76.9084 39.3023 76.9418 39.2292 76.9877 39.1582C77.0337 39.0872 77.0963 39.0204 77.1756 38.9578C77.255 38.891 77.3573 38.8325 77.4825 38.7824L79.9564 37.7929C80.0984 37.7386 80.1693 37.6551 80.1693 37.5424C80.1693 37.3879 80.0733 37.3106 79.8812 37.3106H76.9502V36.1896ZM84.092 40.4233C83.712 40.4233 83.3822 40.3628 83.1024 40.2417C82.8227 40.1165 82.5847 39.9474 82.3884 39.7344C82.2172 39.5465 82.0836 39.3315 81.9876 39.0893C81.8916 38.8472 81.8436 38.5862 81.8436 38.3065C81.8436 37.9975 81.9041 37.7094 82.0252 37.4422C82.1463 37.1749 82.3133 36.9432 82.5262 36.747C82.7141 36.5716 82.9354 36.4359 83.1901 36.3399C83.449 36.2397 83.7496 36.1896 84.092 36.1896H84.737C85.0794 36.1896 85.378 36.2397 85.6326 36.3399C85.8915 36.4359 86.1149 36.5716 86.3028 36.747C86.5157 36.9432 86.6827 37.1749 86.8038 37.4422C86.9249 37.7094 86.9854 37.9975 86.9854 38.3065C86.9854 38.5862 86.9374 38.8472 86.8414 39.0893C86.7454 39.3315 86.6118 39.5465 86.4406 39.7344C86.2443 39.9474 86.0063 40.1165 85.7266 40.2417C85.4468 40.3628 85.117 40.4233 84.737 40.4233H84.092ZM84.092 37.3106C83.8999 37.3106 83.7412 37.3357 83.616 37.3858C83.4907 37.4359 83.3822 37.5027 83.2903 37.5862C83.1943 37.6781 83.117 37.7866 83.0586 37.9119C83.0043 38.0371 82.9771 38.1708 82.9771 38.3127C82.9771 38.4422 83.0001 38.5653 83.046 38.6822C83.092 38.795 83.1567 38.8952 83.2402 38.9829C83.3321 39.0831 83.4469 39.1624 83.5847 39.2209C83.7224 39.2793 83.8915 39.3085 84.092 39.3085H84.737C84.9375 39.3085 85.1066 39.2793 85.2443 39.2209C85.3821 39.1624 85.4969 39.0831 85.5888 38.9829C85.6723 38.8952 85.737 38.795 85.783 38.6822C85.8289 38.5653 85.8519 38.4422 85.8519 38.3127C85.8519 38.1708 85.8226 38.0371 85.7642 37.9119C85.7099 37.7866 85.6347 37.6781 85.5387 37.5862C85.4468 37.5027 85.3383 37.4359 85.213 37.3858C85.0878 37.3357 84.9291 37.3106 84.737 37.3106H84.092ZM87.4149 36.1896H90.6091C90.8178 36.1896 91.0036 36.2209 91.1665 36.2835C91.3335 36.342 91.4734 36.4255 91.5861 36.534C91.703 36.6384 91.7907 36.7658 91.8491 36.9161C91.9118 37.0622 91.9431 37.2209 91.9431 37.3921C91.9431 37.6342 91.8721 37.8576 91.7301 38.0622C91.5882 38.2668 91.3794 38.4192 91.1038 38.5194L89.1936 39.2146C89.1602 39.2271 89.1435 39.248 89.1435 39.2772C89.1435 39.319 89.1665 39.3398 89.2124 39.3398H91.893V40.4233H88.273C88.106 40.4233 87.9619 40.4004 87.8408 40.3544C87.7239 40.3043 87.6258 40.2417 87.5465 40.1666C87.4713 40.0872 87.4149 39.9975 87.3774 39.8973C87.344 39.797 87.3273 39.6968 87.3273 39.5966C87.3273 39.5256 87.3356 39.4526 87.3523 39.3774C87.3732 39.3023 87.4066 39.2292 87.4525 39.1582C87.4985 39.0872 87.5611 39.0204 87.6404 38.9578C87.7197 38.891 87.822 38.8325 87.9473 38.7824L90.4212 37.7929C90.5631 37.7386 90.6341 37.6551 90.6341 37.5424C90.6341 37.3879 90.5381 37.3106 90.346 37.3106H87.4149V36.1896ZM92.2895 36.1896H95.4837C95.6924 36.1896 95.8782 36.2209 96.0411 36.2835C96.2081 36.342 96.3479 36.4255 96.4607 36.534C96.5776 36.6384 96.6653 36.7658 96.7237 36.9161C96.7864 37.0622 96.8177 37.2209 96.8177 37.3921C96.8177 37.6342 96.7467 37.8576 96.6047 38.0622C96.4628 38.2668 96.254 38.4192 95.9784 38.5194L94.0682 39.2146C94.0348 39.2271 94.0181 39.248 94.0181 39.2772C94.0181 39.319 94.0411 39.3398 94.087 39.3398H96.7676V40.4233H93.1476C92.9806 40.4233 92.8365 40.4004 92.7154 40.3544C92.5985 40.3043 92.5004 40.2417 92.4211 40.1666C92.3459 40.0872 92.2895 39.9975 92.252 39.8973C92.2186 39.797 92.2019 39.6968 92.2019 39.5966C92.2019 39.5256 92.2102 39.4526 92.2269 39.3774C92.2478 39.3023 92.2812 39.2292 92.3271 39.1582C92.373 39.0872 92.4357 39.0204 92.515 38.9578C92.5943 38.891 92.6966 38.8325 92.8219 38.7824L95.2958 37.7929C95.4377 37.7386 95.5087 37.6551 95.5087 37.5424C95.5087 37.3879 95.4127 37.3106 95.2206 37.3106H92.2895V36.1896Z" fill="#FFFCF5"/>
</svg>
