<svg width="494" height="248" viewBox="0 0 494 248" fill="none" xmlns="http://www.w3.org/2000/svg">
<path d="M102.612 97.4434L65.4458 105.343C64.7617 105.456 64.0687 105.702 63.3975 106.07C62.9441 106.334 62.5232 106.699 62.1664 107.138C61.7897 107.603 61.483 108.129 61.2651 108.682C61.0472 109.236 60.9228 109.806 60.8996 110.358C60.847 110.955 60.9186 111.521 61.1089 112.011C61.2991 112.501 61.6027 112.901 61.9953 113.178C62.2977 113.409 62.6578 113.549 63.0522 113.589C63.6552 113.62 64.2806 113.556 64.9121 113.399L87.7075 108.554C90.2282 107.941 92.7011 107.888 94.9854 108.396C96.8342 108.866 98.4762 109.801 99.8112 111.144C101.078 112.442 102.057 114.065 102.7 115.934C103.349 117.828 103.603 119.964 103.445 122.208C103.315 124.293 102.825 126.436 102.004 128.518C101.214 130.558 100.161 132.52 98.8862 134.327C97.2871 136.502 95.3781 138.375 93.2852 139.823C90.7619 141.508 88.0838 142.627 85.4339 143.105L45.4182 151.61L46.4002 136.786L83.9691 128.801C84.8061 128.663 85.6541 128.355 86.4722 127.891C87.0295 127.554 87.5386 127.081 87.9529 126.513C88.5607 125.651 88.9209 124.641 88.9655 123.673C89.0209 123.102 88.9729 122.554 88.8242 122.063C88.6756 121.573 88.4295 121.15 88.101 120.821C87.7721 120.441 87.3355 120.197 86.8349 120.112C86.0923 120.049 85.3164 120.116 84.5316 120.31L63.5326 124.774C60.6843 125.49 57.8809 125.615 55.2636 125.142C53.3525 124.716 51.6546 123.791 50.2829 122.427C49.0222 121.145 48.0569 119.528 47.4381 117.662C46.8033 115.72 46.5633 113.543 46.7324 111.259C46.8675 108.991 47.4172 106.656 48.3473 104.398C49.2603 102.198 50.4854 100.107 51.9624 98.2258C53.5443 96.2425 55.3982 94.5626 57.4038 93.2953C60.1484 91.6805 63.0053 90.6021 65.8286 90.1151L103.63 82.0802L102.612 97.4434Z" fill="#FFFCF5"/>
<path d="M168.222 68.351L167.204 83.7142L144.595 88.52L141.771 131.147L127.834 134.11L130.657 91.4825L108.017 96.2949L109.035 80.9317L168.222 68.351Z" fill="#FFFCF5"/>
<path d="M223.568 111.223C223.729 111.6 223.866 111.995 223.978 112.406C224.075 112.779 224.155 113.191 224.233 113.621L208.655 116.932C208.594 116.584 208.514 116.246 208.416 115.919C208.344 115.626 208.255 115.353 208.181 115.094L205.885 108.721L175.347 115.212L172.207 122.741C172.092 123.091 171.961 123.462 171.845 123.83C171.716 124.186 171.616 124.546 171.544 124.906L155.532 128.309C155.647 127.853 155.789 127.399 155.958 126.949C156.128 126.479 156.322 126.014 156.539 125.557L178.127 75.5443C179.559 72.036 181.758 68.8139 184.468 66.2543C187.367 63.9165 190.563 62.3334 193.751 61.6558C196.938 60.9782 200.012 61.2287 202.68 62.3833C205.133 63.8427 206.973 66.2061 207.984 69.198L223.568 111.223ZM201.7 97.0024L195.136 77.8471C194.973 77.3344 194.659 76.9344 194.235 76.7007C193.843 76.4929 193.374 76.4435 192.885 76.5587C192.43 76.6545 191.973 76.8817 191.559 77.218C191.081 77.6535 190.701 78.2212 190.475 78.8379L181.232 101.284L201.7 97.0024Z" fill="#FFFCF5"/>
<path d="M243.095 109.611L229.266 112.55L232.869 58.1613C233.028 55.7603 234.254 54.3162 236.546 53.829L273.201 46.0377C275.917 45.3667 278.583 45.3013 281.046 45.8454C282.944 46.3589 284.628 47.3423 286 48.7378C287.188 49.9764 288.095 51.5292 288.674 53.3156C289.274 55.128 289.508 57.1602 289.362 59.2933C289.223 61.5613 288.712 63.8918 287.853 66.1668C286.936 68.5044 285.488 70.6559 283.687 72.3528C285.261 72.9879 286.503 74.2104 287.256 75.8655C287.992 78.0903 288.221 80.6149 287.927 83.2534L287.161 94.8237C287.076 96.0938 287.008 97.1203 286.955 97.9207C286.918 98.7213 286.927 99.5101 286.982 100.282L273.045 103.245C272.973 101.998 272.981 100.724 273.068 99.4315L273.836 87.8439C273.946 87.1074 273.91 86.3957 273.729 85.7625C273.549 85.1293 273.23 84.591 272.796 84.1882C271.566 83.5317 270.063 83.4347 268.524 83.9126L244.459 89.0279L243.095 109.611ZM269.771 70.6105C270.578 70.4705 271.393 70.1271 272.159 69.6056C272.782 69.1563 273.342 68.5739 273.798 67.9019C274.492 66.9271 274.914 65.7854 274.989 64.6813C275.044 64.0768 274.99 63.4982 274.83 62.9807C274.67 62.4633 274.407 62.0178 274.058 61.6713C273.61 61.2277 273.053 60.9305 272.426 60.8001C271.799 60.6697 271.118 60.7092 270.429 60.9161L247.2 65.8535C247.046 65.8637 246.887 65.9149 246.735 66.003C246.583 66.0912 246.442 66.214 246.323 66.3619C246.204 66.5099 246.11 66.6791 246.049 66.8564C245.987 67.0337 245.96 67.2144 245.969 67.3846L245.412 75.7883L269.771 70.6105Z" fill="#FFFCF5"/>
<path d="M353.898 28.8849L352.881 44.248L330.256 49.0571L327.432 91.6843L313.495 94.6468L316.318 52.0196L293.709 56.8254L294.727 41.4622L353.898 28.8849Z" fill="#FFFCF5"/>
<path d="M372.899 82.0186C370.087 82.6744 367.309 82.9072 364.639 82.7108C362.595 82.5682 360.747 81.8306 359.254 80.5618C357.874 79.3064 356.91 77.5599 356.46 75.495C355.928 72.9308 355.78 70.1789 356.023 67.3368L358.637 27.8762L372.575 24.9137L370.075 62.6518C369.836 66.2592 371.373 67.7106 374.687 67.0062L396.089 62.4572C399.506 61.7308 401.334 59.564 401.573 55.9566L404.073 18.2185L418.01 15.256L415.396 54.7166C414.969 61.1716 413.263 66.1829 410.265 69.7191C407.267 73.2553 402.539 75.7184 396.035 77.1009L372.899 82.0186Z" fill="#FFFCF5"/>
<path d="M462.486 5.80262C465.628 5.05888 468.71 4.98582 471.569 5.58727C473.855 6.11718 475.892 7.2258 477.552 8.84416C479.206 10.4621 480.479 12.5203 481.304 14.9084C482.141 17.3491 482.478 20.0951 482.295 22.9829C482.137 25.5167 481.572 28.1185 480.626 30.6623C479.688 33.1787 478.418 35.6052 476.868 37.8424C474.876 40.6766 472.449 43.1154 469.769 44.9778C466.515 47.1561 463.059 48.599 459.641 49.2062L435.855 54.2622L434.889 68.8424L421.075 71.7786L424.678 17.3897C424.838 14.9887 426.032 13.5511 428.277 13.0739L462.486 5.80262ZM460.848 34.9006C462.111 34.6881 463.389 34.1706 464.598 33.3831C465.524 32.7613 466.35 31.9052 466.992 30.9017C467.875 29.5476 468.402 28.0047 468.488 26.5181C468.617 24.9278 468.26 23.4785 467.478 22.4101C466.925 21.7318 466.189 21.2748 465.337 21.0812C464.214 20.8319 462.997 20.8631 461.758 21.1729L438.653 26.084C437.987 26.2255 437.635 26.6948 437.582 27.4952L436.752 40.0224L460.848 34.9006Z" fill="#FFFCF5"/>
<path d="M104.911 184.2L62.4176 193.232C61.6386 193.366 60.8505 193.65 60.0871 194.071C59.5634 194.375 59.0765 194.795 58.6621 195.3C58.2232 195.839 57.867 196.45 57.6166 197.094C57.3661 197.738 57.227 198.401 57.2082 199.04C57.1635 199.715 57.2593 200.351 57.4881 200.898C57.7169 201.445 58.0723 201.887 58.5263 202.19C58.8791 202.451 59.2938 202.614 59.7466 202.669C60.4343 202.705 61.1472 202.634 61.8675 202.458L87.7755 196.951C90.662 196.25 93.4934 196.19 96.1082 196.775C98.2243 197.304 100.103 198.37 101.626 199.908C103.077 201.4 104.196 203.267 104.926 205.416C106.377 209.636 106.095 214.81 104.14 219.804C103.24 222.152 102.027 224.411 100.553 226.484C98.7263 228.977 96.544 231.125 94.1502 232.786C91.2565 234.706 88.1891 235.984 85.1534 236.533L39.315 246.277L40.4411 229.278L83.4765 220.131C84.4387 219.971 85.4132 219.618 86.3548 219.09C86.9705 218.699 87.5303 218.162 87.9852 217.525C88.7109 216.542 89.148 215.372 89.2101 214.246C89.2673 213.6 89.2088 212.982 89.0382 212.429C88.8676 211.876 88.5884 211.399 88.2172 211.026C87.8398 210.583 87.3295 210.305 86.7436 210.224C85.8943 210.141 85.0039 210.215 84.103 210.443L60.0843 215.548C56.824 216.369 53.6154 216.51 50.6212 215.964C48.4293 215.491 46.4834 214.436 44.9174 212.871C43.4741 211.393 42.3697 209.533 41.6622 207.387C40.9275 205.164 40.6514 202.666 40.8507 200.046C41.0065 197.448 41.6412 194.773 42.7148 192.188C43.7542 189.668 45.1552 187.271 46.8475 185.117C48.6526 182.848 50.7732 180.929 53.068 179.49C56.2103 177.639 59.4815 176.403 62.7145 175.844L106.075 166.627L104.911 184.2Z" fill="#FFFCF5"/>
<path d="M130.791 226.832C127.576 227.591 124.399 227.857 121.349 227.622C119.005 227.461 116.886 226.616 115.175 225.16C113.589 223.727 112.484 221.725 111.972 219.357C111.365 216.424 111.198 213.277 111.475 210.027L114.472 164.79L130.438 161.397L127.572 204.668C127.299 208.791 129.067 210.439 132.846 209.636L157.36 204.426C161.263 203.596 163.35 201.123 163.623 197.005L166.486 153.786L182.406 150.402L179.409 195.639C178.919 203.04 176.957 208.763 173.523 212.809C170.09 216.855 164.678 219.652 157.287 221.2L130.791 226.832Z" fill="#FFFCF5"/>
<path d="M206.436 164.955C206.366 164.718 206.221 164.535 206.023 164.434C205.826 164.334 205.587 164.321 205.343 164.398C204.983 164.484 204.629 164.718 204.352 165.055C204.191 165.261 204.061 165.493 203.971 165.737C203.881 165.98 203.834 166.23 203.831 166.469L200.818 211.95L185.611 215.182L188.833 166.552C188.948 163.42 189.646 160.175 190.884 157.025C191.933 154.5 193.45 152.148 195.308 150.166C196.804 148.655 198.433 147.35 200.145 146.291C202.027 145.127 203.995 144.331 205.95 143.942C209.282 143.092 212.453 143.639 214.856 145.479C217.17 147.43 218.948 150.052 220.072 153.171L231.308 182.912C231.378 183.253 231.553 183.529 231.806 183.698C232.059 183.867 232.377 183.919 232.712 183.848C233.047 183.777 233.381 183.586 233.664 183.303C233.947 183.02 234.164 182.661 234.282 182.28L249.807 146.816C251.381 143.133 253.55 139.674 256.175 136.663C258.903 133.713 262.259 131.776 265.588 131.231C267.546 130.79 269.463 130.76 271.243 131.144C272.862 131.494 274.363 132.134 275.698 133.045C277.359 134.273 278.619 136.035 279.373 138.182C280.223 140.888 280.505 143.924 280.202 147.097L276.978 195.761L261.756 198.997L264.769 153.516C264.798 153.271 264.783 153.035 264.723 152.823C264.664 152.612 264.561 152.429 264.423 152.286C264.184 152.058 263.852 151.969 263.492 152.038C263.253 152.062 263.007 152.177 262.792 152.365C262.578 152.554 262.408 152.805 262.309 153.079L241.61 198.648C240.621 200.851 239.064 202.788 237.201 204.131C235.304 205.494 233.268 206.425 231.241 206.856C229.214 207.287 227.246 207.207 225.478 206.622C223.745 206.039 222.405 204.72 221.679 202.884L206.528 164.935" fill="#FFFCF5"/>
<path d="M330.205 185.801C328.177 186.253 326.207 186.173 324.449 185.566C322.714 184.988 321.372 183.668 320.651 181.828L305.484 143.882C305.42 143.644 305.278 143.459 305.083 143.357C304.888 143.256 304.65 143.243 304.407 143.322C304.046 143.403 303.691 143.638 303.417 143.979C303.252 144.184 303.119 144.416 303.027 144.661C302.935 144.905 302.885 145.155 302.88 145.396L299.866 190.894L284.659 194.127L287.88 145.497C287.995 142.364 288.694 139.12 289.931 135.97C291 133.434 292.538 131.077 294.417 129.098C295.911 127.582 297.541 126.276 299.255 125.222C301.136 124.059 303.105 123.262 305.059 122.873C308.392 122.02 311.565 122.568 313.965 124.411C316.28 126.362 318.058 128.984 319.181 132.102L330.4 161.881C330.47 162.223 330.645 162.499 330.898 162.667C331.151 162.836 331.469 162.889 331.804 162.818C332.139 162.747 332.473 162.555 332.756 162.272C333.039 161.99 333.256 161.631 333.374 161.249L348.914 125.782C350.483 122.102 352.647 118.644 355.267 115.632C357.994 112.682 361.351 110.745 364.68 110.201C366.638 109.758 368.556 109.728 370.335 110.114C371.956 110.459 373.457 111.099 374.79 112.014C376.45 113.243 377.711 115.005 378.465 117.151C379.314 119.858 379.597 122.894 379.294 126.066L376.073 174.696L360.865 177.929L363.878 132.448C363.908 132.203 363.893 131.967 363.833 131.755C363.774 131.543 363.671 131.36 363.532 131.218C363.288 130.99 362.951 130.902 362.587 130.973C362.347 130.996 362.101 131.112 361.886 131.3C361.672 131.489 361.502 131.74 361.403 132.014L340.72 177.579C339.721 179.783 338.16 181.718 336.295 183.066C334.361 184.476 332.274 185.413 330.205 185.801V185.801Z" fill="#FFFCF5"/>
<path d="M404.536 103.187L400.138 169.581L384.156 172.978L388.555 106.584L404.536 103.187Z" fill="#FFFCF5"/>
<path d="M477.986 87.5733L476.822 105.146L450.945 110.646L447.711 159.468L431.807 162.848L435.041 114.027L409.071 119.547L410.235 101.974L477.986 87.5733Z" fill="#FFFCF5"/>
<path d="M69.5909 43.4887C69.5909 43.4887 63.5063 60.6315 60.2667 68.8739C57.0272 77.1163 55.0831 80.3565 55.0831 80.3565C52.0791 79.0818 47.3066 75.8202 47.3066 75.8202C49.3081 73.5948 49.663 72.2173 50.4308 68.8739L51.997 62.2908C39.8619 72.6352 29.9022 84.8959 22.6043 98.4741C16.3395 111.924 22.9698 118.034 29.9656 128.311C20.5221 125.061 11.8291 120.243 4.33177 114.103C1.7999 111.917 0.286739 108.934 0.102978 105.768C-0.245038 102.433 0.291999 99.0716 1.66919 95.964C3.46656 91.8018 5.85333 87.8694 8.76939 84.266L33.0458 52.7713L21.3514 59.7807C20.8567 60.0995 20.3858 60.4475 19.9418 60.8226L7.56863 54.3342C7.88187 54.0974 8.14291 53.8133 8.45615 53.6238L9.44808 53.0081L46.4109 31.3171C48.9208 29.7457 51.8325 28.7837 54.8685 28.5228C57.8482 28.4231 60.793 29.1322 63.326 30.5593C65.8385 31.7644 67.8533 33.6752 69.0689 36.0058C70.0793 38.3935 70.2615 41.0044 69.5909 43.4887Z" fill="#F2B330"/>
<path d="M391.155 186.333H407.392C408.453 186.333 409.398 186.492 410.225 186.81C411.074 187.107 411.785 187.532 412.358 188.084C412.953 188.614 413.398 189.262 413.695 190.026C414.014 190.768 414.173 191.575 414.173 192.445C414.173 193.676 413.812 194.812 413.091 195.852C412.369 196.892 411.308 197.666 409.907 198.176L400.197 201.709C400.027 201.773 399.942 201.879 399.942 202.028C399.942 202.24 400.059 202.346 400.292 202.346H413.918V207.854H395.517C394.668 207.854 393.936 207.737 393.32 207.504C392.726 207.249 392.227 206.931 391.824 206.549C391.442 206.145 391.155 205.689 390.964 205.18C390.795 204.67 390.71 204.161 390.71 203.651C390.71 203.291 390.752 202.919 390.837 202.537C390.943 202.155 391.113 201.784 391.346 201.423C391.58 201.062 391.898 200.723 392.302 200.404C392.705 200.065 393.225 199.767 393.862 199.513L406.437 194.483C407.158 194.207 407.519 193.782 407.519 193.209C407.519 192.424 407.031 192.031 406.055 192.031H391.155V186.333ZM427.459 207.854C425.527 207.854 423.851 207.546 422.429 206.931C421.007 206.294 419.797 205.434 418.799 204.352C417.929 203.397 417.25 202.304 416.762 201.073C416.274 199.842 416.03 198.515 416.03 197.093C416.03 195.523 416.337 194.058 416.953 192.7C417.568 191.341 418.417 190.164 419.5 189.166C420.455 188.275 421.58 187.585 422.874 187.097C424.19 186.587 425.718 186.333 427.459 186.333H430.738C432.478 186.333 433.996 186.587 435.291 187.097C436.606 187.585 437.742 188.275 438.697 189.166C439.779 190.164 440.628 191.341 441.244 192.7C441.859 194.058 442.167 195.523 442.167 197.093C442.167 198.515 441.923 199.842 441.435 201.073C440.947 202.304 440.268 203.397 439.397 204.352C438.4 205.434 437.19 206.294 435.768 206.931C434.346 207.546 432.669 207.854 430.738 207.854H427.459ZM427.459 192.031C426.483 192.031 425.676 192.159 425.039 192.413C424.403 192.668 423.851 193.008 423.384 193.432C422.896 193.899 422.503 194.451 422.206 195.088C421.93 195.724 421.792 196.403 421.792 197.125C421.792 197.783 421.909 198.409 422.142 199.003C422.376 199.576 422.705 200.086 423.129 200.532C423.596 201.041 424.18 201.444 424.88 201.741C425.581 202.038 426.44 202.187 427.459 202.187H430.738C431.757 202.187 432.616 202.038 433.317 201.741C434.017 201.444 434.601 201.041 435.068 200.532C435.492 200.086 435.821 199.576 436.055 199.003C436.288 198.409 436.405 197.783 436.405 197.125C436.405 196.403 436.256 195.724 435.959 195.088C435.683 194.451 435.301 193.899 434.813 193.432C434.346 193.008 433.794 192.668 433.158 192.413C432.521 192.159 431.714 192.031 430.738 192.031H427.459ZM444.35 186.333H460.587C461.648 186.333 462.592 186.492 463.42 186.81C464.269 187.107 464.98 187.532 465.553 188.084C466.148 188.614 466.593 189.262 466.89 190.026C467.209 190.768 467.368 191.575 467.368 192.445C467.368 193.676 467.007 194.812 466.285 195.852C465.564 196.892 464.503 197.666 463.102 198.176L453.392 201.709C453.222 201.773 453.137 201.879 453.137 202.028C453.137 202.24 453.254 202.346 453.487 202.346H467.113V207.854H448.712C447.863 207.854 447.131 207.737 446.515 207.504C445.921 207.249 445.422 206.931 445.019 206.549C444.637 206.145 444.35 205.689 444.159 205.18C443.99 204.67 443.905 204.161 443.905 203.651C443.905 203.291 443.947 202.919 444.032 202.537C444.138 202.155 444.308 201.784 444.541 201.423C444.775 201.062 445.093 200.723 445.496 200.404C445.9 200.065 446.42 199.767 447.056 199.513L459.632 194.483C460.353 194.207 460.714 193.782 460.714 193.209C460.714 192.424 460.226 192.031 459.25 192.031H444.35V186.333ZM469.129 186.333H485.365C486.427 186.333 487.371 186.492 488.199 186.81C489.048 187.107 489.759 187.532 490.332 188.084C490.926 188.614 491.372 189.262 491.669 190.026C491.987 190.768 492.147 191.575 492.147 192.445C492.147 193.676 491.786 194.812 491.064 195.852C490.343 196.892 489.281 197.666 487.881 198.176L478.171 201.709C478.001 201.773 477.916 201.879 477.916 202.028C477.916 202.24 478.033 202.346 478.266 202.346H491.892V207.854H473.491C472.642 207.854 471.909 207.737 471.294 207.504C470.7 207.249 470.201 206.931 469.798 206.549C469.416 206.145 469.129 205.689 468.938 205.18C468.768 204.67 468.683 204.161 468.683 203.651C468.683 203.291 468.726 202.919 468.811 202.537C468.917 202.155 469.087 201.784 469.32 201.423C469.554 201.062 469.872 200.723 470.275 200.404C470.678 200.065 471.198 199.767 471.835 199.513L484.41 194.483C485.132 194.207 485.493 193.782 485.493 193.209C485.493 192.424 485.005 192.031 484.028 192.031H469.129V186.333Z" fill="#FFFCF5"/>
</svg>
