<svg width="305" height="769" viewBox="0 0 305 769" fill="none" xmlns="http://www.w3.org/2000/svg">
<circle r="232.807" transform="matrix(1 0 0 -1 -78.7098 382.656)" stroke="#FFFCF5" stroke-width="0.526389"/>
<circle r="163.104" transform="matrix(1 0 0 -1 -78.7095 382.658)" stroke="#FFFCF5" stroke-width="0.526389"/>
<circle r="330.249" transform="matrix(1 0 0 -1 -76.0763 385.29)" stroke="#FFFCF5" stroke-width="0.526389"/>
<circle r="384.237" transform="matrix(1 0 0 -1 -79.5 384.5)" stroke="#FFFCF5" stroke-width="0.526389"/>
<circle r="277.841" transform="matrix(1 0 0 -1 -77.3932 383.973)" stroke="#FFFCF5" stroke-width="0.526389"/>
<circle r="130.43" transform="matrix(1 0 0 -1 -79.4364 381.93)" stroke="#FFFCF5" stroke-width="0.526389"/>
<circle r="195.777" transform="matrix(1 0 0 -1 -79.4368 381.931)" stroke="#FFFCF5" stroke-width="0.526389"/>
<path d="M146.188 229.241C146.656 230.223 148.125 229.938 148.191 228.852L148.578 222.508C148.597 222.199 148.75 221.915 148.997 221.73L153.727 218.176C154.429 217.648 154.215 216.542 153.366 216.316L147.65 214.789C147.351 214.71 147.103 214.503 146.97 214.224L144.238 208.485C143.77 207.503 142.301 207.788 142.235 208.874L141.848 215.219C141.829 215.527 141.676 215.811 141.429 215.997L136.7 219.551C135.997 220.078 136.212 221.184 137.061 221.411L142.777 222.937C143.075 223.017 143.323 223.223 143.456 223.502L146.188 229.241Z" fill="#FFFCF5"/>
<path d="M92.7134 568.937C93.2656 569.875 94.7035 569.462 94.6741 568.374L94.2315 551.969C94.2232 551.66 94.3507 551.364 94.5803 551.157L104.845 541.929C105.499 541.341 105.188 540.259 104.322 540.108L90.725 537.731C90.4209 537.678 90.1554 537.494 89.9987 537.228L81.6704 523.087C81.1183 522.15 79.6804 522.562 79.7097 523.65L80.1524 540.055C80.1607 540.364 80.0332 540.66 79.8036 540.867L69.5385 550.095C68.885 550.683 69.1958 551.765 70.0614 551.917L83.6589 554.293C83.963 554.346 84.2285 554.53 84.3852 554.796L92.7134 568.937Z" fill="#FFFCF5"/>
<path d="M69.2952 341.058L72.4776 325.737C72.6669 324.825 73.835 324.551 74.411 325.282L84.0123 337.475L75.5574 324.382C75.0564 323.607 75.6814 322.597 76.5993 322.699L91.96 324.414L76.8308 321.252C75.9267 321.063 75.6478 319.908 76.3659 319.327L88.4825 309.525L75.5572 318.115C74.7818 318.631 73.7577 318.005 73.8622 317.08L75.617 301.53L72.4347 316.852C72.2453 317.763 71.0773 318.038 70.5013 317.307L60.8999 305.113L69.3548 318.206C69.8559 318.982 69.2309 319.992 68.313 319.889L52.9523 318.175L68.0814 321.337C68.9855 321.526 69.2644 322.68 68.5464 323.261L56.4297 333.064L69.3551 324.473C70.1304 323.958 71.1545 324.584 71.0501 325.509L69.2952 341.058Z" fill="#FFFCF5"/>
</svg>
