<svg width="769" height="769" viewBox="0 0 769 769" fill="none" xmlns="http://www.w3.org/2000/svg">
<circle r="232.807" transform="matrix(1 0 0 -1 385.29 382.656)" stroke="#FFFCF5" stroke-width="0.526389"/>
<circle r="163.104" transform="matrix(1 0 0 -1 385.291 382.657)" stroke="#FFFCF5" stroke-width="0.526389"/>
<circle r="330.249" transform="matrix(1 0 0 -1 387.924 385.29)" stroke="#FFFCF5" stroke-width="0.526389"/>
<circle r="384.237" transform="matrix(1 0 0 -1 384.5 384.5)" stroke="#FFFCF5" stroke-width="0.526389"/>
<circle r="277.841" transform="matrix(1 0 0 -1 386.607 383.974)" stroke="#FFFCF5" stroke-width="0.526389"/>
<circle r="130.43" transform="matrix(1 0 0 -1 384.564 381.93)" stroke="#FFFCF5" stroke-width="0.526389"/>
<circle r="195.777" transform="matrix(1 0 0 -1 384.563 381.931)" stroke="#FFFCF5" stroke-width="0.526389"/>
<path d="M172.322 301.397C172.5 302.47 173.991 302.601 174.354 301.576L177.521 292.629C177.624 292.338 177.85 292.107 178.138 291.996L185.962 289.007C186.782 288.693 186.881 287.571 186.127 287.119L178.945 282.811C178.68 282.652 178.499 282.385 178.448 282.081L176.889 272.719C176.71 271.646 175.22 271.515 174.857 272.54L171.689 281.487C171.586 281.778 171.361 282.009 171.072 282.12L163.249 285.109C162.428 285.423 162.33 286.545 163.083 286.997L170.265 291.305C170.53 291.464 170.712 291.731 170.763 292.035L172.322 301.397Z" fill="#FFFCF5"/>
<path d="M610.188 229.241C610.656 230.223 612.125 229.938 612.191 228.852L612.578 222.508C612.597 222.2 612.75 221.915 612.997 221.73L617.726 218.176C618.429 217.648 618.214 216.542 617.365 216.316L611.649 214.789C611.351 214.71 611.103 214.503 610.97 214.225L608.238 208.485C607.77 207.503 606.301 207.788 606.235 208.874L605.848 215.219C605.829 215.527 605.676 215.811 605.429 215.997L600.699 219.551C599.997 220.079 600.211 221.184 601.061 221.411L606.776 222.937C607.075 223.017 607.323 223.223 607.456 223.502L610.188 229.241Z" fill="#FFFCF5"/>
<path d="M556.713 568.937C557.266 569.875 558.703 569.462 558.674 568.374L558.232 551.969C558.223 551.66 558.351 551.364 558.58 551.157L568.845 541.929C569.499 541.341 569.188 540.259 568.322 540.108L554.725 537.731C554.421 537.678 554.155 537.494 553.999 537.228L545.67 523.087C545.118 522.15 543.68 522.562 543.71 523.65L544.152 540.055C544.161 540.364 544.033 540.66 543.804 540.867L533.539 550.095C532.885 550.683 533.196 551.765 534.061 551.917L547.659 554.293C547.963 554.346 548.228 554.53 548.385 554.796L556.713 568.937Z" fill="#FFFCF5"/>
<path d="M533.295 341.058L536.478 325.737C536.667 324.826 537.835 324.551 538.411 325.282L548.012 337.475L539.558 324.383C539.057 323.607 539.681 322.597 540.599 322.699L555.96 324.414L540.831 321.252C539.927 321.063 539.648 319.908 540.366 319.328L552.483 309.525L539.557 318.115C538.782 318.631 537.758 318.005 537.862 317.08L539.617 301.53L536.435 316.852C536.245 317.763 535.077 318.038 534.501 317.307L524.9 305.114L533.355 318.206C533.856 318.982 533.231 319.992 532.313 319.889L516.952 318.175L532.082 321.337C532.986 321.526 533.265 322.68 532.546 323.261L520.43 333.064L533.355 324.473C534.131 323.958 535.155 324.584 535.05 325.509L533.295 341.058Z" fill="#FFFCF5"/>
<path d="M241.765 523.745C241.845 524.357 242.73 524.357 242.81 523.745L243.389 519.284C243.439 518.905 243.862 518.703 244.188 518.903L247.986 521.238C248.51 521.56 249.066 520.876 248.645 520.428L245.537 517.121C245.281 516.847 245.383 516.401 245.734 516.268L249.954 514.66C250.527 514.442 250.328 513.586 249.717 513.644L245.257 514.066C244.88 514.102 244.59 513.741 244.706 513.381L246.088 509.066C246.276 508.479 245.476 508.102 245.143 508.621L242.731 512.38C242.524 512.703 242.052 512.703 241.844 512.38L239.432 508.621C239.099 508.102 238.299 508.479 238.487 509.066L239.87 513.381C239.985 513.741 239.695 514.102 239.318 514.066L234.858 513.644C234.248 513.586 234.048 514.442 234.621 514.66L238.841 516.268C239.192 516.401 239.295 516.847 239.038 517.121L235.93 520.428C235.509 520.876 236.066 521.56 236.589 521.238L240.388 518.903C240.713 518.703 241.137 518.905 241.186 519.284L241.765 523.745Z" fill="#FFFCF5"/>
<path d="M278.635 135.558C278.715 136.17 279.6 136.17 279.68 135.558L280.259 131.097C280.309 130.718 280.732 130.516 281.057 130.716L284.856 133.051C285.379 133.373 285.936 132.689 285.515 132.241L282.407 128.934C282.151 128.66 282.253 128.214 282.604 128.081L286.824 126.473C287.397 126.255 287.198 125.399 286.587 125.457L282.127 125.879C281.75 125.915 281.46 125.554 281.575 125.194L282.958 120.879C283.146 120.292 282.346 119.915 282.013 120.434L279.601 124.193C279.393 124.516 278.922 124.516 278.714 124.193L276.302 120.434C275.969 119.915 275.169 120.292 275.357 120.879L276.74 125.194C276.855 125.554 276.565 125.915 276.188 125.879L271.728 125.457C271.117 125.399 270.918 126.255 271.491 126.473L275.711 128.081C276.062 128.214 276.164 128.66 275.908 128.934L272.8 132.241C272.379 132.689 272.936 133.373 273.459 133.051L277.258 130.716C277.583 130.516 278.006 130.718 278.056 131.097L278.635 135.558Z" fill="#FFFCF5"/>
<path d="M142.594 526.326C142.967 528.574 146.198 528.574 146.571 526.326C146.752 525.24 147.771 524.499 148.861 524.663C151.114 525.003 152.112 521.93 150.09 520.88C149.112 520.373 148.723 519.174 149.215 518.189C150.234 516.151 147.62 514.252 145.997 515.851C145.213 516.624 143.952 516.624 143.168 515.851C141.545 514.252 138.931 516.151 139.95 518.189C140.442 519.174 140.053 520.373 139.075 520.88C137.053 521.93 138.052 525.003 140.304 524.663C141.394 524.499 142.413 525.24 142.594 526.326Z" fill="#FFFCF5"/>
<path d="M430.57 543.865C433.68 542.603 432.781 537.978 429.424 537.973C428.389 537.971 427.424 537.445 426.862 536.576L425.107 533.865C423.56 531.474 419.889 532.188 419.351 534.983L418.74 538.155C418.544 539.172 417.846 540.02 416.886 540.41C413.777 541.672 414.676 546.297 418.032 546.302C419.067 546.303 420.032 546.829 420.595 547.699L422.349 550.41C423.896 552.8 427.567 552.087 428.106 549.291L428.717 546.12C428.913 545.103 429.61 544.254 430.57 543.865Z" fill="#FFFCF5"/>
</svg>
