<svg width="251" height="1824" viewBox="0 0 251 1824" fill="none" xmlns="http://www.w3.org/2000/svg">
<path d="M0 956.72L0 1335.56H41L41 956.72H0Z" fill="#0B59B6"/>
<path d="M0 871.44L0 940.32H41L41 871.44H0Z" fill="#0B59B6"/>
<path d="M0 799.28L0 855.04H41V799.28H0Z" fill="#0B59B6"/>
<path d="M0 732.04L0 782.88H41V732.04H0Z" fill="#F97F3D"/>
<path d="M0 697.6L0 715.64H41V697.6H0Z" fill="#F97F3D"/>
<path d="M0 682.84L0 689.4H41V682.84H0Z" fill="#F97F3D"/>
<path d="M0 671.36L0 677.92H41V671.36H0Z" fill="#F97F3D"/>
<path d="M0 636.92L0 658.24H41V636.92H0Z" fill="#F2B330"/>
<path d="M0 594.28L0 623.8H41V594.28H0Z" fill="#F2B330"/>
<path d="M0 554.92L0 561.48H41V554.92H0Z" fill="#F2B330"/>
<path d="M0 468L0 474.56H41V468H0Z" fill="#F2B330"/>
<path d="M0 1335.28L0 956.44H41L41 1335.28H0Z" fill="#0B59B6"/>
<path d="M0 1420.56L0 1351.68H41L41 1420.56H0Z" fill="#0B59B6"/>
<path d="M0 1492.72L0 1436.96H41V1492.72H0Z" fill="#0B59B6"/>
<path d="M0 1559.96L0 1509.12H41V1559.96H0Z" fill="#F97F3D"/>
<path d="M0 1594.4L0 1576.36H41V1594.4H0Z" fill="#F97F3D"/>
<path d="M0 1609.16L0 1602.6H41V1609.16H0Z" fill="#F97F3D"/>
<path d="M0 1620.64L0 1614.08H41V1620.64H0Z" fill="#F97F3D"/>
<path d="M0 1655.08L0 1633.76H41V1655.08H0Z" fill="#F2B330"/>
<path d="M0 1697.72L0 1668.2H41V1697.72H0Z" fill="#F2B330"/>
<path d="M0 1737.08L0 1730.52H41V1737.08H0Z" fill="#F2B330"/>
<path d="M0 1824L0 1817.44H41V1824H0Z" fill="#F2B330"/>
<path d="M105 1105.33L105 885H146V1105.33H105Z" fill="#0B59B6"/>
<path d="M105 1154.93V1114.87H146V1154.93H105Z" fill="#0B59B6"/>
<path d="M105 1196.89V1164.46H146V1196.89H105Z" fill="#0B59B6"/>
<path d="M105 1236V1206.43H146V1236H105Z" fill="#F97F3D"/>
<path d="M105 1256.03V1245.54H146V1256.03H105Z" fill="#F97F3D"/>
<path d="M105 1264.61V1260.8H146V1264.61H105Z" fill="#F97F3D"/>
<path d="M105 1271.29V1267.47H146V1271.29H105Z" fill="#F97F3D"/>
<path d="M105 1291.32V1278.92H146V1291.32H105Z" fill="#F2B330"/>
<path d="M105 1316.12V1298.95H146V1316.12H105Z" fill="#F2B330"/>
<path d="M105 1339.01V1335.19H146V1339.01H105Z" fill="#F2B330"/>
<path d="M105 1389.56V1385.74H146V1389.56H105Z" fill="#F2B330"/>
<path d="M210 883.704V697H251V883.704H210Z" fill="#0B59B6"/>
<path d="M210 925.732V891.786H251V925.732H210Z" fill="#0B59B6"/>
<path d="M210 961.295V933.815H251V961.295H210Z" fill="#0B59B6"/>
<path d="M210 994.433V969.378H251V994.433H210Z" fill="#F97F3D"/>
<path d="M210 1011.41V1002.52H251V1011.41H210Z" fill="#F97F3D"/>
<path d="M210 1018.68V1015.45H251V1018.68H210Z" fill="#F97F3D"/>
<path d="M210 1024.34V1021.1H251V1024.34H210Z" fill="#F97F3D"/>
<path d="M210 1041.31V1030.8H251V1041.31H210Z" fill="#F2B330"/>
<path d="M210 1062.33V1047.78H251V1062.33H210Z" fill="#F2B330"/>
<path d="M210 1081.72V1078.49H251V1081.72H210Z" fill="#F2B330"/>
<path d="M210 1124.56V1121.33H251V1124.56H210Z" fill="#F2B330"/>
<path d="M105 722.72L105 1101.56H146L146 722.72H105Z" fill="#0B59B6"/>
<path d="M105 637.44V706.32H146V637.44H105Z" fill="#0B59B6"/>
<path d="M105 565.28V621.04H146V565.28H105Z" fill="#0B59B6"/>
<path d="M105 498.04V548.88H146V498.04H105Z" fill="#F97F3D"/>
<path d="M105 463.6V481.64H146V463.6H105Z" fill="#F97F3D"/>
<path d="M105 448.84V455.4H146V448.84H105Z" fill="#F97F3D"/>
<path d="M105 437.36V443.92H146V437.36H105Z" fill="#F97F3D"/>
<path d="M105 402.92V424.24H146V402.92H105Z" fill="#F2B330"/>
<path d="M105 360.28V389.8H146V360.28H105Z" fill="#F2B330"/>
<path d="M105 320.92V327.48H146V320.92H105Z" fill="#F2B330"/>
<path d="M105 234V240.56H146V234H105Z" fill="#F2B330"/>
<path d="M210 488.72L210 867.56H251L251 488.72H210Z" fill="#0B59B6"/>
<path d="M210 403.44V472.32H251V403.44H210Z" fill="#0B59B6"/>
<path d="M210 331.28V387.04H251V331.28H210Z" fill="#0B59B6"/>
<path d="M210 264.04V314.88H251V264.04H210Z" fill="#F97F3D"/>
<path d="M210 229.6V247.64H251V229.6H210Z" fill="#F97F3D"/>
<path d="M210 214.84V221.4H251V214.84H210Z" fill="#F97F3D"/>
<path d="M210 203.36V209.92H251V203.36H210Z" fill="#F97F3D"/>
<path d="M210 168.92V190.24H251V168.92H210Z" fill="#F2B330"/>
<path d="M210 126.28V155.8H251V126.28H210Z" fill="#F2B330"/>
<path d="M210 86.92V93.48H251V86.92H210Z" fill="#F2B330"/>
<path d="M210 5.8651e-05V6.56006L251 6.56006V5.8651e-05L210 5.8651e-05Z" fill="#F2B330"/>
</svg>
