<svg width="480" height="410" viewBox="0 0 480 410" fill="none" xmlns="http://www.w3.org/2000/svg">
<circle r="232.807" transform="matrix(-1 0 0 1 383.71 27.3435)" stroke="#FFFCF5" stroke-width="0.526389"/>
<circle r="163.104" transform="matrix(-1 0 0 1 383.71 27.3425)" stroke="#FFFCF5" stroke-width="0.526389"/>
<circle r="330.249" transform="matrix(-1 0 0 1 381.076 24.7098)" stroke="#FFFCF5" stroke-width="0.526389"/>
<circle r="384.237" transform="matrix(-1 0 0 1 384.5 25.5)" stroke="#FFFCF5" stroke-width="0.526389"/>
<circle r="277.841" transform="matrix(-1 0 0 1 382.393 26.0266)" stroke="#FFFCF5" stroke-width="0.526389"/>
<circle r="130.43" transform="matrix(-1 0 0 1 384.436 28.0696)" stroke="#FFFCF5" stroke-width="0.526389"/>
<circle r="195.777" transform="matrix(-1 0 0 1 384.437 28.0686)" stroke="#FFFCF5" stroke-width="0.526389"/>
<path d="M158.812 180.759C158.344 179.777 156.875 180.062 156.809 181.148L156.422 187.492C156.403 187.801 156.25 188.085 156.003 188.27L151.274 191.824C150.571 192.352 150.786 193.458 151.635 193.684L157.351 195.211C157.649 195.29 157.897 195.497 158.03 195.776L160.762 201.515C161.23 202.497 162.699 202.212 162.765 201.126L163.152 194.781C163.171 194.473 163.324 194.189 163.571 194.003L168.301 190.449C169.003 189.922 168.789 188.816 167.939 188.589L162.224 187.063C161.925 186.983 161.677 186.777 161.544 186.498L158.812 180.759Z" fill="#FFFCF5"/>
<path d="M416.826 168.119L413.643 183.441C413.454 184.352 412.286 184.627 411.71 183.896L402.109 171.702L410.564 184.795C411.065 185.571 410.44 186.581 409.522 186.478L394.161 184.764L409.29 187.926C410.194 188.115 410.473 189.269 409.755 189.85L397.638 199.653L410.564 191.062C411.339 190.547 412.363 191.172 412.259 192.098L410.504 207.647L413.686 192.326C413.876 191.414 415.044 191.139 415.62 191.871L425.221 204.064L416.766 190.971C416.265 190.195 416.89 189.186 417.808 189.288L433.169 191.003L418.04 187.841C417.135 187.652 416.857 186.497 417.575 185.916L429.691 176.114L416.766 184.704C415.991 185.219 414.966 184.594 415.071 183.669L416.826 168.119Z" fill="#FFFCF5"/>
</svg>
