<svg width="405" height="146" viewBox="0 0 405 146" fill="none" xmlns="http://www.w3.org/2000/svg">
<rect x="0.332937" y="69.1983" width="396.58" height="77.3013" rx="14.581" transform="rotate(-10 0.332937 69.1983)" fill="url(#paint0_linear_258_2390)"/>
<path d="M63.2214 104.835C63.377 105.717 63.3844 106.506 63.2436 107.202C63.1219 107.87 62.8888 108.45 62.5444 108.942C62.2191 109.407 61.8057 109.779 61.3041 110.059C60.8067 110.362 60.2675 110.565 59.6868 110.668C58.6878 110.844 57.7784 110.848 56.9585 110.682C56.166 110.534 55.4336 110.184 54.7613 109.632L39.1972 96.9622C38.9745 96.7858 38.7702 96.7141 38.5844 96.7468C38.4217 96.7755 38.2926 96.8582 38.1969 96.9948C38.1012 97.1315 38.0718 97.3043 38.1087 97.5134L40.9229 113.473L34.7201 114.567L31.4451 95.9936C31.269 94.9947 31.2473 94.1242 31.3799 93.3822C31.5358 92.6361 31.8188 91.9993 32.2288 91.4719C32.6388 90.9445 33.1643 90.5285 33.8052 90.2238C34.4421 89.896 35.1554 89.6624 35.9453 89.5231C37.0604 89.3265 38.032 89.3348 38.86 89.5481C39.6881 89.7614 40.5496 90.2323 41.4446 90.9608L55.3711 102.698C55.4845 102.797 55.5917 102.862 55.6929 102.892C55.7899 102.899 55.8965 102.892 56.0126 102.872C56.3379 102.815 56.4636 102.577 56.3899 102.159L53.7048 86.9306L59.8726 85.843L63.2214 104.835ZM79.514 106.669C77.4 107.041 75.5053 107.028 73.8301 106.629C72.1507 106.206 70.6606 105.499 69.3598 104.507C68.223 103.629 67.2687 102.564 66.4968 101.311C65.7249 100.058 65.2017 98.6527 64.9272 97.0962C64.6241 95.3771 64.6783 93.7147 65.0899 92.1091C65.5014 90.5036 66.2033 89.0504 67.1956 87.7496C68.0689 86.5896 69.167 85.6174 70.4899 84.8332C71.832 84.0217 73.4554 83.448 75.3604 83.1121L80.3087 82.2396C82.2136 81.9037 83.9238 81.8896 85.4392 82.1973C86.9738 82.4776 88.3498 83.0135 89.5672 83.8049C90.9445 84.6878 92.1011 85.8133 93.037 87.1813C93.9728 88.5493 94.5923 90.0929 94.8955 91.812C95.1699 93.3685 95.1588 94.8675 94.862 96.3092C94.5653 97.7508 94.0329 99.0783 93.2647 100.292C92.3818 101.669 91.2235 102.843 89.7899 103.815C88.3522 104.763 86.5763 105.423 84.4623 105.796L79.514 106.669ZM76.4603 89.3497C75.3916 89.5381 74.5334 89.8332 73.8856 90.2348C73.2379 90.6365 72.6994 91.1147 72.2702 91.6694C71.826 92.2747 71.5028 92.9545 71.3004 93.7088C71.1213 94.459 71.1014 95.229 71.2406 96.0189C71.3676 96.7391 71.6162 97.4019 71.9865 98.0073C72.3526 98.5895 72.811 99.0835 73.3617 99.4894C73.9711 99.9569 74.6877 100.286 75.5117 100.476C76.3357 100.666 77.3052 100.662 78.4203 100.466L83.3686 99.5933C84.4837 99.3967 85.3959 99.0682 86.1051 98.6078C86.8144 98.1474 87.3755 97.5933 87.7882 96.9456C88.1668 96.3759 88.4286 95.7548 88.5735 95.0825C88.7144 94.387 88.7213 93.6791 88.5943 92.959C88.4551 92.1691 88.1614 91.4544 87.7132 90.8148C87.2883 90.1711 86.7637 89.6408 86.1392 89.224C85.5462 88.8495 84.8767 88.5843 84.1306 88.4284C83.3845 88.2725 82.4771 88.2888 81.4085 88.4772L76.4603 89.3497ZM115.855 81.2176C115.46 81.2872 115.246 81.5646 115.212 82.0497L113.845 95.6927C113.653 97.5949 113.076 99.074 112.112 100.13C111.144 101.163 109.755 101.839 107.942 102.159C106.874 102.347 105.908 102.374 105.046 102.238C104.211 102.122 103.474 101.881 102.835 101.515C102.195 101.148 101.655 100.669 101.215 100.075C100.776 99.4823 100.432 98.8242 100.185 98.1013L94.1423 80.9501C93.9948 80.521 93.8944 80.1555 93.8412 79.8535L100.497 78.6799C100.517 78.796 100.542 78.9354 100.571 79.098C100.623 79.2566 100.674 79.4151 100.726 79.5736L106.039 95.2366C106.203 95.7586 106.529 95.9766 107.017 95.8906C107.226 95.8537 107.392 95.7765 107.515 95.659C107.634 95.5183 107.704 95.3024 107.724 95.0113L109.083 81.7291C109.272 79.9472 109.808 78.5712 110.691 77.6011C111.569 76.6077 112.961 75.9431 114.866 75.6072C116.748 75.2754 118.246 75.4184 119.361 76.0363C120.476 76.6541 121.396 77.7256 122.12 79.2507L127.9 91.4537C128.019 91.7202 128.159 91.8992 128.319 91.9908C128.474 92.0591 128.657 92.0749 128.866 92.038C129.33 91.9561 129.562 91.6398 129.561 91.0891L129.405 74.5167C129.419 74.3227 129.414 74.156 129.389 74.0166C129.36 73.854 129.336 73.7146 129.315 73.5984L135.901 72.4371C135.934 72.623 135.953 72.7993 135.959 72.966C135.983 73.1054 135.995 73.3069 135.993 73.5707L135.979 91.8258C135.974 93.4315 135.5 94.8205 134.557 95.9928C133.634 97.1378 132.115 97.8967 130.001 98.2695C126.493 98.888 123.965 97.5252 122.417 94.1812L116.745 81.7793C116.547 81.3352 116.25 81.1479 115.855 81.2176ZM170.898 66.2663C173.384 65.828 175.443 66.2314 177.076 67.4765C177.712 67.9631 178.263 68.5726 178.727 69.3051C179.188 70.0144 179.506 70.8685 179.682 71.8675C179.863 72.8897 179.817 73.8558 179.547 74.7658C179.295 75.6485 178.831 76.413 178.154 77.0593C179.119 77.3683 179.893 77.9505 180.475 78.806C181.08 79.6574 181.479 80.6291 181.671 81.721C181.819 82.5573 181.807 83.3738 181.636 84.1704C181.488 84.963 181.212 85.7063 180.808 86.4004C180.331 87.2271 179.653 87.9335 178.774 88.5196C177.918 89.1016 176.794 89.5155 175.4 89.7613L158.22 92.7905C157.175 92.9748 156.564 92.5675 156.388 91.5686L152.757 70.9741C152.585 69.9984 153.021 69.4184 154.067 69.2341L170.898 66.2663ZM161.86 85.7173C161.921 86.0657 162.115 86.2113 162.44 86.154L172.894 84.3106C173.358 84.2287 173.72 84.1051 173.978 83.9398C174.256 83.7471 174.469 83.5299 174.618 83.288C174.873 82.8358 174.958 82.3657 174.872 81.8778C174.79 81.4132 174.54 81.0142 174.122 80.6807C173.899 80.5044 173.638 80.3827 173.339 80.3157C173.04 80.2487 172.658 80.2562 172.193 80.3381L161.251 82.2674L161.86 85.7173ZM171.485 76.1155C171.926 76.0377 172.264 75.9181 172.499 75.7569C172.754 75.5684 172.953 75.3416 173.098 75.0765C173.315 74.6789 173.387 74.271 173.313 73.8528C173.24 73.4346 173.033 73.0759 172.692 72.7766C172.47 72.6003 172.209 72.4786 171.91 72.4116C171.629 72.3173 171.269 72.3091 170.827 72.3869L160.338 74.2364C160.013 74.2937 159.881 74.4966 159.943 74.8451L160.508 78.051L171.485 76.1155ZM197.292 85.9011C195.178 86.2739 193.283 86.2606 191.608 85.8614C189.929 85.4389 188.439 84.7315 187.138 83.7392C186.001 82.8618 185.047 81.7965 184.275 80.5433C183.503 79.2901 182.98 77.8852 182.705 76.3287C182.402 74.6096 182.456 72.9473 182.868 71.3417C183.279 69.7361 183.981 68.2829 184.974 66.9821C185.847 65.8221 186.945 64.85 188.268 64.0658C189.61 63.2543 191.234 62.6806 193.138 62.3447L198.087 61.4722C199.992 61.1363 201.702 61.1222 203.217 61.4298C204.752 61.7102 206.128 62.246 207.345 63.0374C208.723 63.9204 209.879 65.0459 210.815 66.4139C211.751 67.7819 212.37 69.3254 212.674 71.0445C212.948 72.601 212.937 74.1001 212.64 75.5417C212.343 76.9833 211.811 78.3108 211.043 79.5242C210.16 80.9015 209.002 82.0758 207.568 83.0472C206.13 83.9954 204.354 84.6558 202.24 85.0286L197.292 85.9011ZM194.238 68.5822C193.17 68.7707 192.311 69.0657 191.664 69.4674C191.016 69.8691 190.477 70.3473 190.048 70.902C189.604 71.5073 189.281 72.1871 189.078 72.9414C188.899 73.6916 188.879 74.4616 189.019 75.2514C189.146 75.9716 189.394 76.6344 189.765 77.2398C190.131 77.822 190.589 78.3161 191.14 78.722C191.749 79.1894 192.466 79.5182 193.29 79.7082C194.114 79.8983 195.083 79.895 196.198 79.6984L201.147 78.8259C202.262 78.6292 203.174 78.3007 203.883 77.8403C204.592 77.3799 205.154 76.8259 205.566 76.1782C205.945 75.6084 206.207 74.9874 206.352 74.3151C206.492 73.6195 206.499 72.9117 206.372 72.1915C206.233 71.4017 205.939 70.6869 205.491 70.0473C205.066 69.4037 204.542 68.8734 203.917 68.4565C203.324 68.082 202.655 67.8168 201.909 67.6609C201.163 67.505 200.255 67.5213 199.187 67.7097L194.238 68.5822ZM244.556 76.4892C244.682 76.6587 244.782 76.8207 244.858 76.9751C244.956 77.1254 245.045 77.2894 245.124 77.4671L238.015 78.7205C237.94 78.5661 237.869 78.4349 237.802 78.3269C237.731 78.1957 237.662 78.0762 237.595 77.9682L235.837 75.332L221.898 77.7897L221.176 80.8274C221.154 80.975 221.132 81.1225 221.11 81.2701C221.089 81.4177 221.078 81.5632 221.08 81.7067L213.797 82.9909C213.81 82.7969 213.826 82.6144 213.844 82.4436C213.885 82.2687 213.936 82.0801 213.996 81.8779L219.135 61.7131C219.551 60.1307 220.241 58.8832 221.206 57.9705C222.171 57.0578 223.501 56.4519 225.197 56.1529C226.847 55.8621 228.281 55.9805 229.499 56.5081C230.742 57.0317 231.828 57.9658 232.76 59.3106L244.556 76.4892ZM232.621 70.5453L227.51 62.7514C227.349 62.5164 227.165 62.3571 226.959 62.2738C226.753 62.1904 226.533 62.1692 226.301 62.2101C226.092 62.247 225.905 62.3399 225.739 62.4888C225.57 62.6145 225.452 62.827 225.385 63.1262L223.282 72.192L232.621 70.5453ZM253.921 75.9159L247.614 77.028L243.718 54.9352C243.546 53.9594 243.983 53.3794 245.028 53.1951L261.755 50.2458C263.218 49.9877 264.463 49.9838 265.489 50.234C266.512 50.461 267.407 50.854 268.177 51.413C268.864 51.9146 269.442 52.5433 269.91 53.299C270.398 54.0274 270.72 54.833 270.875 55.7158C271.043 56.6683 271.041 57.603 270.867 58.5199C270.689 59.4135 270.235 60.2361 269.505 60.9876C270.377 61.3129 271.051 61.805 271.526 62.4637C272.025 63.1183 272.393 64.1193 272.631 65.4668L273.46 70.1711C273.55 70.6822 273.624 71.1003 273.681 71.4256C273.762 71.7467 273.854 72.0658 273.958 72.3828L267.581 73.5073C267.421 73.0085 267.294 72.4919 267.2 71.9576L266.371 67.2533C266.239 66.5099 265.948 66.0104 265.495 65.7548C265.043 65.4992 264.352 65.4533 263.423 65.6172L252.446 67.5527L253.921 75.9159ZM262.651 60.22C263.093 60.1422 263.44 60.009 263.695 59.8205C263.949 59.6319 264.148 59.4051 264.293 59.14C264.53 58.7151 264.609 58.2819 264.531 57.8405C264.437 57.3062 264.185 56.8955 263.775 56.6085C263.33 56.2559 262.724 56.1472 261.957 56.2823L251.329 58.1564C250.98 58.2178 250.837 58.4228 250.898 58.7713L251.5 62.1862L262.651 60.22ZM287.046 45.7862C288.951 45.4503 290.662 45.4362 292.177 45.7438C293.712 46.0242 295.088 46.56 296.305 47.3514C297.682 48.2344 298.839 49.3599 299.775 50.7279C300.711 52.0959 301.33 53.6394 301.633 55.3585C301.908 56.915 301.897 58.4141 301.6 59.8557C301.303 61.2973 300.771 62.6248 300.003 63.8382C299.12 65.2155 297.961 66.3898 296.528 67.3612C295.09 68.3094 293.314 68.9698 291.2 69.3426L278.481 71.5853C277.459 71.7655 276.86 71.3562 276.684 70.3572L273.052 49.7628C272.88 48.7871 273.305 48.2091 274.327 48.0289L287.046 45.7862ZM280.654 53.3448C280.352 53.398 280.23 53.5873 280.287 53.9125L282.075 64.0529C282.133 64.3782 282.312 64.5142 282.614 64.4609L290.106 63.1399C291.221 62.9432 292.134 62.6147 292.843 62.1543C293.552 61.6939 294.113 61.1399 294.526 60.4922C294.905 59.9224 295.166 59.3014 295.311 58.6291C295.452 57.9335 295.459 57.2257 295.332 56.5055C295.193 55.7157 294.899 55.0009 294.451 54.3613C294.026 53.7177 293.502 53.1874 292.877 52.7705C292.284 52.396 291.615 52.1308 290.868 51.9749C290.122 51.819 289.215 51.8353 288.146 52.0237L280.654 53.3448ZM308.981 41.9184L313.135 65.4749L306.793 66.5931L302.639 43.0367L308.981 41.9184ZM345.092 55.1331C345.248 56.0159 345.255 56.805 345.115 57.5005C344.993 58.1688 344.76 58.7488 344.415 59.2407C344.09 59.7053 343.677 60.0776 343.175 60.3576C342.678 60.6609 342.139 60.8638 341.558 60.9662C340.559 61.1423 339.649 61.147 338.83 60.9802C338.037 60.8325 337.305 60.4825 336.632 59.9304L321.068 47.2607C320.846 47.0844 320.641 47.0126 320.455 47.0454C320.293 47.0741 320.164 47.1567 320.068 47.2933C319.972 47.43 319.943 47.6028 319.98 47.8119L322.794 63.7718L316.591 64.8655L313.316 46.2921C313.14 45.2932 313.118 44.4227 313.251 43.6807C313.407 42.9346 313.69 42.2979 314.1 41.7705C314.51 41.243 315.035 40.827 315.676 40.5224C316.313 40.1945 317.026 39.9609 317.816 39.8217C318.931 39.625 319.903 39.6334 320.731 39.8467C321.559 40.0599 322.421 40.5308 323.316 41.2593L337.242 52.9961C337.356 53.0959 337.463 53.1608 337.564 53.1909C337.661 53.1977 337.767 53.1909 337.884 53.1704C338.209 53.1131 338.335 52.8753 338.261 52.4572L335.576 37.2291L341.744 36.1416L345.092 55.1331ZM361.385 56.9671C359.271 57.3398 357.376 57.3266 355.701 56.9274C354.022 56.5049 352.532 55.7975 351.231 54.8052C350.094 53.9278 349.14 52.8624 348.368 51.6092C347.596 50.3561 347.073 48.9512 346.798 47.3947C346.495 45.6756 346.549 44.0133 346.961 42.4077C347.372 40.8021 348.074 39.3489 349.067 38.0481C349.94 36.8881 351.038 35.916 352.361 35.1318C353.703 34.3203 355.326 33.7466 357.231 33.4107L369.951 31.1679L371.05 37.4055L358.331 39.6482C357.263 39.8367 356.404 40.1317 355.757 40.5334C355.109 40.935 354.57 41.4132 354.141 41.968C353.697 42.5733 353.374 43.2531 353.171 44.0074C352.992 44.7575 352.972 45.5276 353.112 46.3174C353.239 47.0376 353.487 47.7004 353.857 48.3058C354.224 48.888 354.682 49.382 355.233 49.788C355.842 50.2554 356.563 50.6074 357.395 50.8439C358.223 51.0572 359.195 51.0655 360.31 50.8689L366.338 49.8059C366.64 49.7527 366.763 49.5634 366.705 49.2382L365.593 42.9309L371.866 41.8249L373.875 53.2198C374.051 54.2188 373.64 54.8063 372.641 54.9824L361.385 56.9671Z" fill="#FAFAFA"/>
<rect x="0.332937" y="69.1983" width="396.58" height="77.3013" rx="14.581" transform="rotate(-10 0.332937 69.1983)" stroke="#FAFAFA" stroke-width="4.60451"/>
<defs>
<linearGradient id="paint0_linear_258_2390" x1="-34.1397" y1="71.1775" x2="459.058" y2="72.5712" gradientUnits="userSpaceOnUse">
<stop offset="0.39" stop-color="#0B59B6"/>
<stop offset="0.59" stop-color="#F97F3D"/>
<stop offset="1" stop-color="#F2B330"/>
</linearGradient>
</defs>
</svg>
