<svg width="1041" height="280" viewBox="0 0 1041 280" fill="none" xmlns="http://www.w3.org/2000/svg">
<g clip-path="url(#clip0_680_3222)">
<g filter="url(#filter0_d_680_3222)">
<mask id="mask0_680_3222" style="mask-type:alpha" maskUnits="userSpaceOnUse" x="0" y="0" width="1041" height="1255">
<path d="M0 48C0 21.4903 21.4903 0 48 0L993 0C1019.51 0 1041 21.4903 1041 48V1206.09C1041 1232.6 1019.51 1254.09 993 1254.09H48C21.4903 1254.09 0 1232.6 0 1206.09L0 48Z" fill="#FFFCF5"/>
</mask>
<g mask="url(#mask0_680_3222)">
<path d="M0 46.5936C0 20.8606 20.8607 0 46.5937 0L994.406 0C1020.14 0 1041 20.8607 1041 46.5937V1207.5C1041 1233.23 1020.14 1254.09 994.406 1254.09H46.5937C20.8607 1254.09 0 1233.23 0 1207.5L0 46.5936Z" fill="url(#paint0_linear_680_3222)"/>
<rect width="1041" height="119.574" transform="matrix(-1 0 0 1 1041 0)" fill="url(#paint1_linear_680_3222)"/>
</g>
</g>
<path d="M114.28 59.12H94.84C94.3867 59.12 94.0267 59.1733 93.76 59.28C93.52 59.36 93.32 59.48 93.16 59.64C92.7867 60.0133 92.6 60.48 92.6 61.04C92.6 61.6267 92.8267 62.1067 93.28 62.48C93.44 62.6133 93.6267 62.72 93.84 62.8C94.08 62.8533 94.4133 62.88 94.84 62.88H106.72C108.24 62.88 109.52 63.1067 110.56 63.56C111.627 63.9867 112.52 64.5733 113.24 65.32C113.96 66.0667 114.52 66.92 114.92 67.88C115.347 68.84 115.56 69.8533 115.56 70.92C115.56 71.9067 115.373 72.8533 115 73.76C114.653 74.6667 114.173 75.48 113.56 76.2C112.813 77.0533 111.88 77.7333 110.76 78.24C109.667 78.7467 108.32 79 106.72 79H85.76V72.08H105.44C106 72.08 106.427 72.0267 106.72 71.92C107.04 71.7867 107.293 71.6133 107.48 71.4C107.773 71.0533 107.92 70.64 107.92 70.16C107.92 69.5733 107.733 69.0933 107.36 68.72C107.173 68.5067 106.933 68.36 106.64 68.28C106.373 68.1733 105.973 68.12 105.44 68.12H94.44C92.6267 68.12 91.16 67.9067 90.04 67.48C88.9467 67.0267 88.04 66.4267 87.32 65.68C86.6 64.9333 86.04 64.0933 85.64 63.16C85.24 62.2 85.04 61.16 85.04 60.04C85.04 58.9467 85.24 57.92 85.64 56.96C86.0667 56 86.64 55.1467 87.36 54.4C88.08 53.6533 88.9867 53.0667 90.08 52.64C91.1733 52.1867 92.6267 51.96 94.44 51.96H114.28V59.12ZM148.261 51.96V59.12H136.421V79H129.141V59.12H117.261V51.96H148.261ZM179.382 77.8C179.488 78.0133 179.568 78.2133 179.622 78.4C179.702 78.5867 179.768 78.7867 179.822 79H171.662C171.608 78.8133 171.555 78.6533 171.502 78.52C171.448 78.36 171.395 78.2133 171.342 78.08L169.902 74.8H153.902L152.502 78.04C152.448 78.2 152.395 78.36 152.342 78.52C152.288 78.68 152.248 78.84 152.222 79H143.862C143.915 78.7867 143.968 78.5867 144.022 78.4C144.102 78.2133 144.195 78.0133 144.302 77.8L153.982 56.36C154.755 54.68 155.768 53.4267 157.022 52.6C158.275 51.7733 159.875 51.36 161.822 51.36C163.715 51.36 165.288 51.7733 166.542 52.6C167.822 53.4267 168.848 54.68 169.622 56.36L179.382 77.8ZM167.262 68.84L163.102 59.16C162.968 58.8667 162.795 58.6533 162.582 58.52C162.368 58.3867 162.128 58.32 161.862 58.32C161.622 58.32 161.395 58.3867 161.182 58.52C160.968 58.6267 160.795 58.84 160.662 59.16L156.542 68.84H167.262ZM189.92 79H182.68V53.64C182.68 52.52 183.28 51.96 184.48 51.96H203.68C205.36 51.96 206.746 52.2 207.84 52.68C208.933 53.1333 209.853 53.7467 210.6 54.52C211.266 55.2133 211.786 56.0267 212.16 56.96C212.56 57.8667 212.76 58.8267 212.76 59.84C212.76 60.9333 212.573 61.9733 212.2 62.96C211.826 63.92 211.16 64.7467 210.2 65.44C211.106 65.9733 211.76 66.6533 212.16 67.48C212.586 68.3067 212.8 69.4933 212.8 71.04V76.44C212.8 77.0267 212.8 77.5067 212.8 77.88C212.826 78.2533 212.866 78.6267 212.92 79H205.6C205.52 78.4133 205.48 77.8133 205.48 77.2V71.8C205.48 70.9467 205.253 70.3333 204.8 69.96C204.346 69.5867 203.586 69.4 202.52 69.4H189.92V79ZM202.72 63.24C203.226 63.24 203.64 63.16 203.96 63C204.28 62.84 204.546 62.6267 204.76 62.36C205.106 61.9333 205.28 61.4667 205.28 60.96C205.28 60.3467 205.08 59.84 204.68 59.44C204.253 58.96 203.6 58.72 202.72 58.72H190.52C190.12 58.72 189.92 58.92 189.92 59.32V63.24H202.72ZM246.152 51.96V59.12H234.312V79H227.032V59.12H215.152V51.96H246.152ZM258.328 79C256.621 79 255.168 78.84 253.968 78.52C252.768 78.1733 251.781 77.6533 251.008 76.96C250.261 76.24 249.714 75.3467 249.368 74.28C249.021 73.1867 248.848 71.88 248.848 70.36V51.96H256.128V69.56C256.128 71.24 256.994 72.08 258.728 72.08H269.968C271.754 72.08 272.648 71.24 272.648 69.56V51.96H279.928V70.36C279.928 73.3733 279.194 75.5733 277.728 76.96C276.261 78.32 273.834 79 270.448 79H258.328ZM303.453 51.96C305.373 51.96 306.973 52.2267 308.253 52.76C309.56 53.2667 310.667 53.9733 311.573 54.88C312.507 55.8133 313.24 56.9067 313.773 58.16C314.307 59.4133 314.573 60.72 314.573 62.08C314.573 63.28 314.36 64.44 313.933 65.56C313.533 66.6533 312.96 67.6533 312.213 68.56C311.28 69.68 310.107 70.5733 308.693 71.24C307.28 71.88 305.533 72.2 303.453 72.2H291.013V79H283.773V53.64C283.773 52.52 284.36 51.96 285.533 51.96H303.453ZM303.613 65.56C304.413 65.56 305.053 65.4533 305.533 65.24C306.04 65 306.44 64.68 306.733 64.28C307.16 63.72 307.373 63.08 307.373 62.36C307.373 61.5867 307.147 60.9067 306.693 60.32C306.4 59.9467 306 59.6533 305.493 59.44C305.013 59.2267 304.387 59.12 303.613 59.12H291.533C291.187 59.12 291.013 59.3067 291.013 59.68V65.56H303.613ZM361.897 59.12H342.457C342.004 59.12 341.644 59.1733 341.377 59.28C341.137 59.36 340.937 59.48 340.777 59.64C340.404 60.0133 340.217 60.48 340.217 61.04C340.217 61.6267 340.444 62.1067 340.897 62.48C341.057 62.6133 341.244 62.72 341.457 62.8C341.697 62.8533 342.031 62.88 342.457 62.88H354.337C355.857 62.88 357.137 63.1067 358.177 63.56C359.244 63.9867 360.137 64.5733 360.857 65.32C361.577 66.0667 362.137 66.92 362.537 67.88C362.964 68.84 363.177 69.8533 363.177 70.92C363.177 71.9067 362.991 72.8533 362.617 73.76C362.271 74.6667 361.791 75.48 361.177 76.2C360.431 77.0533 359.497 77.7333 358.377 78.24C357.284 78.7467 355.937 79 354.337 79H333.377V72.08H353.057C353.617 72.08 354.044 72.0267 354.337 71.92C354.657 71.7867 354.911 71.6133 355.097 71.4C355.391 71.0533 355.537 70.64 355.537 70.16C355.537 69.5733 355.351 69.0933 354.977 68.72C354.791 68.5067 354.551 68.36 354.257 68.28C353.991 68.1733 353.591 68.12 353.057 68.12H342.057C340.244 68.12 338.777 67.9067 337.657 67.48C336.564 67.0267 335.657 66.4267 334.937 65.68C334.217 64.9333 333.657 64.0933 333.257 63.16C332.857 62.2 332.657 61.16 332.657 60.04C332.657 58.9467 332.857 57.92 333.257 56.96C333.684 56 334.257 55.1467 334.977 54.4C335.697 53.6533 336.604 53.0667 337.697 52.64C338.791 52.1867 340.244 51.96 342.057 51.96H361.897V59.12ZM375.398 79C373.691 79 372.238 78.84 371.038 78.52C369.838 78.1733 368.851 77.6533 368.078 76.96C367.331 76.24 366.785 75.3467 366.438 74.28C366.091 73.1867 365.918 71.88 365.918 70.36V51.96H373.198V69.56C373.198 71.24 374.065 72.08 375.798 72.08H387.038C388.825 72.08 389.718 71.24 389.718 69.56V51.96H396.998V70.36C396.998 73.3733 396.265 75.5733 394.798 76.96C393.331 78.32 390.905 79 387.518 79H375.398ZM421.564 79.56C420.604 79.56 419.71 79.36 418.884 78.96C418.057 78.56 417.43 77.9333 417.004 77.08L408.804 60.08C408.724 59.8667 408.55 59.76 408.284 59.76C408.124 59.76 407.977 59.8267 407.844 59.96C407.71 60.0667 407.644 60.24 407.644 60.48V79H400.684V59.2C400.684 57.68 400.897 56.4267 401.324 55.44C401.777 54.4533 402.404 53.64 403.204 53C403.817 52.52 404.51 52.1333 405.284 51.84C406.084 51.52 406.964 51.36 407.924 51.36C409.63 51.36 411.017 51.8267 412.084 52.76C413.177 53.6933 414.07 54.9067 414.764 56.4L420.884 69.68C421.017 70.0267 421.244 70.2 421.564 70.2C421.884 70.2 422.11 70.0267 422.244 69.68L428.364 56.4C429.057 54.9067 429.937 53.6933 431.004 52.76C432.07 51.8267 433.47 51.36 435.204 51.36C436.164 51.36 437.03 51.52 437.804 51.84C438.604 52.1333 439.31 52.52 439.924 53C440.724 53.64 441.337 54.4533 441.764 55.44C442.217 56.4267 442.444 57.68 442.444 59.2V79H435.484V60.48C435.484 60.24 435.417 60.0667 435.284 59.96C435.15 59.8267 435.004 59.76 434.844 59.76C434.577 59.76 434.404 59.8667 434.324 60.08L426.124 77.08C425.697 77.9333 425.07 78.56 424.244 78.96C423.417 79.36 422.524 79.56 421.564 79.56ZM467.072 79.56C466.112 79.56 465.218 79.36 464.392 78.96C463.565 78.56 462.938 77.9333 462.512 77.08L454.312 60.08C454.232 59.8667 454.058 59.76 453.792 59.76C453.632 59.76 453.485 59.8267 453.352 59.96C453.218 60.0667 453.152 60.24 453.152 60.48V79H446.192V59.2C446.192 57.68 446.405 56.4267 446.832 55.44C447.285 54.4533 447.912 53.64 448.712 53C449.325 52.52 450.018 52.1333 450.792 51.84C451.592 51.52 452.472 51.36 453.432 51.36C455.138 51.36 456.525 51.8267 457.592 52.76C458.685 53.6933 459.578 54.9067 460.272 56.4L466.392 69.68C466.525 70.0267 466.752 70.2 467.072 70.2C467.392 70.2 467.618 70.0267 467.752 69.68L473.872 56.4C474.565 54.9067 475.445 53.6933 476.512 52.76C477.578 51.8267 478.978 51.36 480.712 51.36C481.672 51.36 482.538 51.52 483.312 51.84C484.112 52.1333 484.818 52.52 485.432 53C486.232 53.64 486.845 54.4533 487.272 55.44C487.725 56.4267 487.952 57.68 487.952 59.2V79H480.992V60.48C480.992 60.24 480.925 60.0667 480.792 59.96C480.658 59.8267 480.512 59.76 480.352 59.76C480.085 59.76 479.912 59.8667 479.832 60.08L471.632 77.08C471.205 77.9333 470.578 78.56 469.752 78.96C468.925 79.36 468.032 79.56 467.072 79.56ZM499.179 51.96V79H491.899V51.96H499.179ZM533.027 51.96V59.12H521.187V79H513.907V59.12H502.027V51.96H533.027ZM551.296 51.96H571.696C573.029 51.96 574.216 52.16 575.256 52.56C576.322 52.9333 577.216 53.4667 577.936 54.16C578.682 54.8267 579.242 55.64 579.616 56.6C580.016 57.5333 580.216 58.5467 580.216 59.64C580.216 61.1867 579.762 62.6133 578.856 63.92C577.949 65.2267 576.616 66.2 574.856 66.84L562.656 71.28C562.442 71.36 562.336 71.4933 562.336 71.68C562.336 71.9467 562.482 72.08 562.776 72.08H579.896V79H556.776C555.709 79 554.789 78.8533 554.016 78.56C553.269 78.24 552.642 77.84 552.136 77.36C551.656 76.8533 551.296 76.28 551.056 75.64C550.842 75 550.736 74.36 550.736 73.72C550.736 73.2667 550.789 72.8 550.896 72.32C551.029 71.84 551.242 71.3733 551.536 70.92C551.829 70.4667 552.229 70.04 552.736 69.64C553.242 69.2133 553.896 68.84 554.696 68.52L570.496 62.2C571.402 61.8533 571.856 61.32 571.856 60.6C571.856 59.6133 571.242 59.12 570.016 59.12H551.296V51.96ZM596.908 79C594.482 79 592.375 78.6133 590.588 77.84C588.802 77.04 587.282 75.96 586.028 74.6C584.935 73.4 584.082 72.0267 583.468 70.48C582.855 68.9333 582.548 67.2667 582.548 65.48C582.548 63.5067 582.935 61.6667 583.708 59.96C584.482 58.2533 585.548 56.7733 586.908 55.52C588.108 54.4 589.522 53.5333 591.148 52.92C592.802 52.28 594.722 51.96 596.908 51.96H601.028C603.215 51.96 605.122 52.28 606.748 52.92C608.402 53.5333 609.828 54.4 611.028 55.52C612.388 56.7733 613.455 58.2533 614.228 59.96C615.002 61.6667 615.388 63.5067 615.388 65.48C615.388 67.2667 615.082 68.9333 614.468 70.48C613.855 72.0267 613.002 73.4 611.908 74.6C610.655 75.96 609.135 77.04 607.348 77.84C605.562 78.6133 603.455 79 601.028 79H596.908ZM596.908 59.12C595.682 59.12 594.668 59.28 593.868 59.6C593.068 59.92 592.375 60.3467 591.788 60.88C591.175 61.4667 590.682 62.16 590.308 62.96C589.962 63.76 589.788 64.6133 589.788 65.52C589.788 66.3467 589.935 67.1333 590.228 67.88C590.522 68.6 590.935 69.24 591.468 69.8C592.055 70.44 592.788 70.9467 593.668 71.32C594.548 71.6933 595.628 71.88 596.908 71.88H601.028C602.308 71.88 603.388 71.6933 604.268 71.32C605.148 70.9467 605.882 70.44 606.468 69.8C607.002 69.24 607.415 68.6 607.708 67.88C608.002 67.1333 608.148 66.3467 608.148 65.52C608.148 64.6133 607.962 63.76 607.588 62.96C607.242 62.16 606.762 61.4667 606.148 60.88C605.562 60.3467 604.868 59.92 604.068 59.6C603.268 59.28 602.255 59.12 601.028 59.12H596.908ZM618.132 51.96H638.532C639.865 51.96 641.052 52.16 642.092 52.56C643.158 52.9333 644.052 53.4667 644.772 54.16C645.518 54.8267 646.078 55.64 646.452 56.6C646.852 57.5333 647.052 58.5467 647.052 59.64C647.052 61.1867 646.598 62.6133 645.692 63.92C644.785 65.2267 643.452 66.2 641.692 66.84L629.492 71.28C629.278 71.36 629.172 71.4933 629.172 71.68C629.172 71.9467 629.318 72.08 629.612 72.08H646.732V79H623.612C622.545 79 621.625 78.8533 620.852 78.56C620.105 78.24 619.478 77.84 618.972 77.36C618.492 76.8533 618.132 76.28 617.892 75.64C617.678 75 617.572 74.36 617.572 73.72C617.572 73.2667 617.625 72.8 617.732 72.32C617.865 71.84 618.078 71.3733 618.372 70.92C618.665 70.4667 619.065 70.04 619.572 69.64C620.078 69.2133 620.732 68.84 621.532 68.52L637.332 62.2C638.238 61.8533 638.692 61.32 638.692 60.6C638.692 59.6133 638.078 59.12 636.852 59.12H618.132V51.96ZM649.264 51.96H669.664C670.998 51.96 672.184 52.16 673.224 52.56C674.291 52.9333 675.184 53.4667 675.904 54.16C676.651 54.8267 677.211 55.64 677.584 56.6C677.984 57.5333 678.184 58.5467 678.184 59.64C678.184 61.1867 677.731 62.6133 676.824 63.92C675.918 65.2267 674.584 66.2 672.824 66.84L660.624 71.28C660.411 71.36 660.304 71.4933 660.304 71.68C660.304 71.9467 660.451 72.08 660.744 72.08H677.864V79H654.744C653.678 79 652.758 78.8533 651.984 78.56C651.238 78.24 650.611 77.84 650.104 77.36C649.624 76.8533 649.264 76.28 649.024 75.64C648.811 75 648.704 74.36 648.704 73.72C648.704 73.2667 648.758 72.8 648.864 72.32C648.998 71.84 649.211 71.3733 649.504 70.92C649.798 70.4667 650.198 70.04 650.704 69.64C651.211 69.2133 651.864 68.84 652.664 68.52L668.464 62.2C669.371 61.8533 669.824 61.32 669.824 60.6C669.824 59.6133 669.211 59.12 667.984 59.12H649.264V51.96ZM704.57 51.96V79H697.29V51.96H704.57ZM738.417 51.96V59.12H726.577V79H719.297V59.12H707.417V51.96H738.417ZM748.593 51.96V79H741.313V51.96H748.593ZM786.201 73.76C786.201 74.7733 786.054 75.6533 785.761 76.4C785.494 77.12 785.121 77.72 784.641 78.2C784.187 78.6533 783.654 78.9867 783.041 79.2C782.427 79.44 781.787 79.56 781.121 79.56C779.974 79.56 778.961 79.3867 778.081 79.04C777.227 78.72 776.481 78.1867 775.841 77.44L761.001 60.28C760.787 60.04 760.574 59.92 760.361 59.92C760.174 59.92 760.014 59.9867 759.881 60.12C759.747 60.2533 759.681 60.44 759.681 60.68V79H752.561V57.68C752.561 56.5333 752.707 55.56 753.001 54.76C753.321 53.96 753.761 53.3067 754.321 52.8C754.881 52.2933 755.547 51.9333 756.321 51.72C757.094 51.48 757.934 51.36 758.841 51.36C760.121 51.36 761.201 51.56 762.081 51.96C762.961 52.36 763.827 53.0533 764.681 54.04L777.881 69.84C777.987 69.9733 778.094 70.0667 778.201 70.12C778.307 70.1467 778.427 70.16 778.561 70.16C778.934 70.16 779.121 69.92 779.121 69.44V51.96H786.201V73.76ZM818.619 51.96V59.12H798.059C797.632 59.12 797.419 59.3467 797.419 59.8V62.88H818.499V68.08H797.419V71.36C797.419 71.84 797.632 72.08 798.059 72.08H818.619V79H793.979C791.445 79 790.179 77.7467 790.179 75.24V55.6C790.179 53.1733 791.459 51.96 794.019 51.96H818.619ZM829.256 79H822.016V53.64C822.016 52.52 822.616 51.96 823.816 51.96H843.016C844.696 51.96 846.082 52.2 847.176 52.68C848.269 53.1333 849.189 53.7467 849.936 54.52C850.602 55.2133 851.122 56.0267 851.496 56.96C851.896 57.8667 852.096 58.8267 852.096 59.84C852.096 60.9333 851.909 61.9733 851.536 62.96C851.162 63.92 850.496 64.7467 849.536 65.44C850.442 65.9733 851.096 66.6533 851.496 67.48C851.922 68.3067 852.136 69.4933 852.136 71.04V76.44C852.136 77.0267 852.136 77.5067 852.136 77.88C852.162 78.2533 852.202 78.6267 852.256 79H844.936C844.856 78.4133 844.816 77.8133 844.816 77.2V71.8C844.816 70.9467 844.589 70.3333 844.136 69.96C843.682 69.5867 842.922 69.4 841.856 69.4H829.256V79ZM842.056 63.24C842.562 63.24 842.976 63.16 843.296 63C843.616 62.84 843.882 62.6267 844.096 62.36C844.442 61.9333 844.616 61.4667 844.616 60.96C844.616 60.3467 844.416 59.84 844.016 59.44C843.589 58.96 842.936 58.72 842.056 58.72H829.856C829.456 58.72 829.256 58.92 829.256 59.32V63.24H842.056ZM889.968 77.8C890.074 78.0133 890.154 78.2133 890.208 78.4C890.288 78.5867 890.354 78.7867 890.408 79H882.248C882.194 78.8133 882.141 78.6533 882.088 78.52C882.034 78.36 881.981 78.2133 881.928 78.08L880.488 74.8H864.488L863.088 78.04C863.034 78.2 862.981 78.36 862.928 78.52C862.874 78.68 862.834 78.84 862.808 79H854.448C854.501 78.7867 854.554 78.5867 854.608 78.4C854.688 78.2133 854.781 78.0133 854.888 77.8L864.568 56.36C865.341 54.68 866.354 53.4267 867.608 52.6C868.861 51.7733 870.461 51.36 872.408 51.36C874.301 51.36 875.874 51.7733 877.128 52.6C878.408 53.4267 879.434 54.68 880.208 56.36L889.968 77.8ZM877.848 68.84L873.688 59.16C873.554 58.8667 873.381 58.6533 873.168 58.52C872.954 58.3867 872.714 58.32 872.448 58.32C872.208 58.32 871.981 58.3867 871.768 58.52C871.554 58.6267 871.381 58.84 871.248 59.16L867.128 68.84H877.848ZM900.506 79H893.266V53.64C893.266 52.52 893.866 51.96 895.066 51.96H914.266C915.946 51.96 917.332 52.2 918.426 52.68C919.519 53.1333 920.439 53.7467 921.186 54.52C921.852 55.2133 922.372 56.0267 922.746 56.96C923.146 57.8667 923.346 58.8267 923.346 59.84C923.346 60.9333 923.159 61.9733 922.786 62.96C922.412 63.92 921.746 64.7467 920.786 65.44C921.692 65.9733 922.346 66.6533 922.746 67.48C923.172 68.3067 923.386 69.4933 923.386 71.04V76.44C923.386 77.0267 923.386 77.5067 923.386 77.88C923.412 78.2533 923.452 78.6267 923.506 79H916.186C916.106 78.4133 916.066 77.8133 916.066 77.2V71.8C916.066 70.9467 915.839 70.3333 915.386 69.96C914.932 69.5867 914.172 69.4 913.106 69.4H900.506V79ZM913.306 63.24C913.812 63.24 914.226 63.16 914.546 63C914.866 62.84 915.132 62.6267 915.346 62.36C915.692 61.9333 915.866 61.4667 915.866 60.96C915.866 60.3467 915.666 59.84 915.266 59.44C914.839 58.96 914.186 58.72 913.306 58.72H901.106C900.706 58.72 900.506 58.92 900.506 59.32V63.24H913.306ZM923.24 52.88C923.027 52.6667 922.867 52.4933 922.76 52.36C922.68 52.2267 922.614 52.0933 922.56 51.96H931.48C931.534 52.0667 931.6 52.2 931.68 52.36C931.787 52.52 931.934 52.6933 932.12 52.88L938.92 60.28C939.107 60.4667 939.294 60.56 939.48 60.56C939.667 60.56 939.854 60.4667 940.04 60.28L946.8 52.88C947.147 52.5333 947.374 52.2267 947.48 51.96H956.24C956.16 52.0933 956.067 52.2267 955.96 52.36C955.88 52.4933 955.734 52.6667 955.52 52.88L942.84 66.88V79H935.52V66.4L923.24 52.88Z" fill="#FAFAFA"/>
</g>
<defs>
<filter id="filter0_d_680_3222" x="-46.5937" y="-6.52312" width="1134.19" height="1347.28" filterUnits="userSpaceOnUse" color-interpolation-filters="sRGB">
<feFlood flood-opacity="0" result="BackgroundImageFix"/>
<feColorMatrix in="SourceAlpha" type="matrix" values="0 0 0 0 0 0 0 0 0 0 0 0 0 0 0 0 0 0 127 0" result="hardAlpha"/>
<feOffset dy="40.0706"/>
<feGaussianBlur stdDeviation="23.2968"/>
<feComposite in2="hardAlpha" operator="out"/>
<feColorMatrix type="matrix" values="0 0 0 0 0 0 0 0 0 0 0 0 0 0 0 0 0 0 0.1 0"/>
<feBlend mode="normal" in2="BackgroundImageFix" result="effect1_dropShadow_680_3222"/>
<feBlend mode="normal" in="SourceGraphic" in2="effect1_dropShadow_680_3222" result="shape"/>
</filter>
<linearGradient id="paint0_linear_680_3222" x1="521" y1="129" x2="521" y2="198.5" gradientUnits="userSpaceOnUse">
<stop stop-color="#FFFCF5"/>
<stop offset="1" stop-color="#FFFCF5" stop-opacity="0"/>
</linearGradient>
<linearGradient id="paint1_linear_680_3222" x1="140.145" y1="119.187" x2="838.913" y2="119.187" gradientUnits="userSpaceOnUse">
<stop stop-color="#F2B330"/>
<stop offset="0.139236" stop-color="#F97F3D"/>
<stop offset="0.65625" stop-color="#3C7AC5"/>
</linearGradient>
<clipPath id="clip0_680_3222">
<rect width="1041" height="280" fill="white"/>
</clipPath>
</defs>
</svg>
