<svg width="338" height="11" viewBox="0 0 338 11" fill="none" xmlns="http://www.w3.org/2000/svg">
<rect width="169.682" height="9.47647" transform="matrix(1 0 0 -1 0 10.2883)" fill="url(#paint0_linear_677_3204)"/>
<path d="M173.742 10.5554H209.465V0.812886H173.742V10.5554Z" fill="#0B59B6"/>
<path d="M244.375 0H219.207V10.5544H244.375V0Z" fill="#0B59B6"/>
<path d="M269.543 0H260.613V10.5544H269.543V0Z" fill="#0B59B6"/>
<path d="M282.533 0H279.286V10.5544H282.533V0Z" fill="#0B59B6"/>
<path d="M289.84 0H286.593V10.5544H289.84V0Z" fill="#0B59B6"/>
<path d="M304.454 0H293.9V10.5544H304.454V0Z" fill="#0B59B6"/>
<path d="M323.127 0H308.514V10.5544H323.127V0Z" fill="#0B59B6"/>
<path d="M337.741 0H334.494V10.5544H337.741V0Z" fill="#0B59B6"/>
<defs>
<linearGradient id="paint0_linear_677_3204" x1="22.8435" y1="9.44574" x2="136.742" y2="9.44575" gradientUnits="userSpaceOnUse">
<stop offset="0.078125" stop-color="#F2B330"/>
<stop offset="0.661458" stop-color="#F97F3D"/>
<stop offset="1" stop-color="#3C7AC5"/>
</linearGradient>
</defs>
</svg>
