<svg width="179" height="90" viewBox="0 0 179 90" fill="none" xmlns="http://www.w3.org/2000/svg">
<path d="M22.4085 86.036C24.1555 87.9388 26.6091 89.0181 29.1767 89.0153L65.4909 88.9653C68.3567 88.9614 71.1814 88.2829 73.7362 86.9846L154.677 45.9107C162.115 42.1358 168.783 36.7473 173.321 29.6898C178.414 21.7671 178.968 16.0338 176.956 11.9834C174.951 7.93025 170.074 4.95368 160.752 4.34724C152.448 3.80756 144.189 5.99409 136.75 9.76626L109.347 23.6727L48.5077 0.844903C47.7762 0.352121 46.9264 0.0636756 46.0461 0.00938913C45.1658 -0.0448973 44.2869 0.136946 43.5004 0.536118L25.2098 9.81912C22.2416 11.3241 21.5239 15.2854 23.7716 17.7557L67.2295 45.0456L38.5182 59.6168L18.3915 49.4715C17.6981 49.1219 16.9322 48.9402 16.1557 48.9412C15.3791 48.9422 14.6137 49.1257 13.9211 49.477L2.75759 55.1436C-0.146647 56.618 -0.911653 60.4625 1.20811 62.955L22.4085 86.036Z" fill="#F2B330"/>
</svg>
