<svg width="208" height="182" viewBox="0 0 208 182" fill="none" xmlns="http://www.w3.org/2000/svg">
<path d="M76.0721 129.461L99.0208 116.439L111.759 168.987L115.258 168.139L111.76 168.987C113.305 175.364 120.527 178.498 126.24 175.256L145.404 164.381C148.49 162.63 150.396 159.361 150.409 155.82L150.409 155.817L150.616 87.1616L181.783 69.4759C187.799 66.0624 194.16 59.3265 198.276 52.1465C200.357 48.5168 201.995 44.5505 202.663 40.6036C203.331 36.6511 203.065 32.4278 200.938 28.6784C198.81 24.929 195.321 22.5348 191.585 21.0815C187.855 19.6302 183.609 19.0025 179.426 18.9274C171.151 18.7787 162.106 20.7851 156.091 24.1987L124.923 41.8843L65.8818 6.84953L65.8792 6.84799C64.3805 5.96002 62.6738 5.48377 60.9318 5.46751C59.1899 5.45124 57.4746 5.89547 55.9596 6.75522C55.9595 6.75526 55.9595 6.75531 55.9594 6.75536L36.7959 17.6296C31.0854 20.87 30.0652 28.673 34.7491 33.273C34.7491 33.273 34.7491 33.273 34.7491 33.273L73.3285 71.1617L50.3797 84.1839L30.2418 75.4036C30.2412 75.4034 30.2407 75.4032 30.2401 75.4029C27.3865 74.158 24.1143 74.334 21.4132 75.8667L9.71315 82.5059C4.12285 85.6781 2.99717 93.2616 7.43689 97.918L7.49611 97.9801L7.55766 98.0399L33.7864 123.528L42.2152 159.116L42.235 159.2L42.2579 159.282C43.9783 165.482 51.0659 168.405 56.6562 165.233L68.3563 158.594C71.0616 157.058 72.8868 154.341 73.2814 151.254C73.2815 151.253 73.2816 151.253 73.2816 151.252L76.0721 129.461Z" fill="#F2B330" stroke="#FAFAFA" stroke-width="9" stroke-linecap="square"/>
</svg>
